<svg xmlns="http://www.w3.org/2000/svg" width="520" height="558" viewBox="0 0 520 558" fill="none"><g clip-path="url(#clip0_303_320)"><path d="M190.783 121.247L255.116 82.8414L321.129 121.195L371.763 91.8958L247.958 19.9765L51.7842 135.027L186.166 213.808C184.215 214.381 182.649 214.969 181.545 215.407C178.202 216.754 174.808 218.204 171.455 221.382C170.66 222.135 169.936 222.96 169.294 223.848L17.0526 135.579L247.429 0L478.597 135.047L248.821 270.358V173.938C256.868 175.799 265.231 175.799 273.278 173.938V235.998L445.462 135.182L389.524 102.818L321.658 141.465L255.645 103.081C239.779 112.368 223.809 121.768 207.928 131.054C207.444 130.456 206.93 129.885 206.387 129.341C205.547 128.517 204.646 127.758 203.691 127.071C201.375 125.419 198.868 124.056 196.225 123.011C194.453 122.3 192.634 121.71 190.783 121.247Z" fill="#6600A0"></path><path d="M260.718 136.378C279.327 136.378 294.418 145.097 294.418 155.854C294.418 166.611 279.327 175.336 260.718 175.336C242.11 175.336 227.014 166.611 227.014 155.854C227.014 145.097 242.105 136.378 260.718 136.378ZM247.47 155.854C247.47 160.085 253.401 163.511 260.718 163.511C268.035 163.511 273.961 160.085 273.961 155.854C273.961 151.624 268.03 148.203 260.718 148.203C253.406 148.203 247.47 151.629 247.47 155.854Z" fill="#6600A0"></path><path d="M192.487 504.075C201.766 520.285 201.761 537.775 192.487 543.136C183.214 548.496 168.159 539.705 158.88 523.494C149.602 507.284 149.607 489.789 158.88 484.429C168.154 479.068 183.209 487.86 192.487 504.075ZM169.098 502.244C165.453 504.354 165.448 511.226 169.098 517.597C172.749 523.969 178.654 527.4 182.305 525.336C185.956 523.273 185.951 516.354 182.305 509.982C178.659 503.611 172.724 500.139 169.098 502.244Z" fill="#6600A0"></path><path d="M446.376 456.177C436.944 472.3 421.811 480.941 412.584 475.493C403.357 470.045 403.521 452.55 412.954 436.433C422.387 420.316 437.519 411.669 446.746 417.112C455.973 422.555 455.793 440.055 446.376 456.177ZM436.379 434.834C432.749 432.687 426.802 436.087 423.095 442.423C419.388 448.758 419.321 455.635 422.951 457.777C426.582 459.918 432.523 456.518 436.23 450.182C439.937 443.847 439.989 436.975 436.363 434.834H436.379Z" fill="#6600A0"></path><path d="M411.331 365.272C401.899 381.395 386.767 390.036 377.539 384.588C368.312 379.14 368.477 361.65 377.909 345.528C387.342 329.405 402.474 320.764 411.701 326.212C420.928 331.66 420.764 349.149 411.331 365.272ZM401.334 343.928C397.704 341.782 391.758 345.182 388.05 351.518C384.343 357.853 384.276 364.73 387.907 366.871C391.537 369.012 397.478 365.618 401.185 359.282C404.892 352.947 404.959 346.069 401.334 343.928Z" fill="#6600A0"></path><path d="M354.659 429.54C345.221 445.658 330.094 454.304 320.862 448.856C311.629 443.408 311.799 425.913 321.237 409.796C330.674 393.679 345.796 385.032 355.029 390.475C364.261 395.918 364.091 413.418 354.659 429.54ZM344.661 408.197C341.031 406.05 335.085 409.45 331.378 415.786C327.671 422.121 327.604 428.998 331.234 431.14C334.864 433.281 340.805 429.881 344.513 423.545C348.22 417.21 348.302 410.338 344.661 408.197Z" fill="#6600A0"></path><path d="M157.802 372.794C167.491 388.762 167.938 406.246 158.798 411.849C149.658 417.452 134.392 409.048 124.698 393.08C115.004 377.112 114.562 359.633 123.702 354.03C132.842 348.427 148.092 356.832 157.802 372.794ZM134.336 371.566C130.742 373.769 130.921 380.641 134.731 386.915C138.541 393.188 144.539 396.49 148.133 394.293C151.727 392.095 151.548 385.217 147.738 378.944C143.928 372.67 137.93 369.374 134.336 371.566Z" fill="#6600A0"></path><path d="M101.319 371.922C110.608 388.127 110.624 405.617 101.319 410.983C92.0152 416.348 76.9908 407.572 67.6969 391.378C58.4029 375.183 58.3978 357.683 67.6712 352.312C76.9446 346.941 92.0203 355.717 101.319 371.922ZM77.9099 370.111C74.2643 372.221 74.2694 379.099 77.9099 385.465C81.5505 391.832 87.476 395.268 91.1217 393.204C94.7674 391.14 94.7674 384.217 91.1217 377.85C87.476 371.484 81.5454 368.001 77.8997 370.111H77.9099Z" fill="#6600A0"></path><path d="M200.272 212.028C218.885 212.028 233.976 220.747 233.976 231.504C233.976 242.261 218.906 250.98 200.272 250.98C181.638 250.98 166.572 242.261 166.572 231.504C166.572 220.747 181.658 212.028 200.272 212.028ZM187.029 231.504C187.029 235.729 192.96 239.16 200.272 239.16C207.584 239.16 213.519 235.729 213.519 231.504C213.519 227.279 207.589 223.848 200.272 223.848C192.955 223.848 187.029 227.274 187.029 231.504Z" fill="#6600A0"></path><path d="M177.684 119.513C196.297 119.797 211.25 128.748 211.06 139.505C210.87 150.262 195.655 158.749 177.068 158.46C158.48 158.171 143.527 149.204 143.692 138.468C143.856 127.732 159.075 119.224 177.684 119.513ZM164.143 138.783C164.082 143.008 169.956 146.521 177.273 146.64C184.59 146.759 190.567 143.416 190.623 139.19C190.68 134.965 184.811 131.451 177.494 131.333C170.177 131.214 164.21 134.557 164.143 138.783Z" fill="#6600A0"></path><path d="M153.581 490.697C153.131 491.793 152.774 492.925 152.513 494.082C152.251 495.268 151.902 497.327 152.241 501.965C152.443 504.753 152.82 507.526 153.371 510.266L0 422.364V154.224L233.694 288.668L232.913 556.266L150.577 413.485C153.479 413.903 156.435 413.282 158.926 411.731C160.596 410.656 161.977 409.186 162.947 407.448L215.969 499.798V297.351L159.08 265.023L19.086 185.479V412.778L153.581 490.697Z" fill="#6600A0"></path><path d="M142.346 255.52L159.08 265.023V343.608L93.2732 305.528V361.088C91.7327 359.112 77.9613 351.167 75.8612 350.873V275.285L141.53 313.51L142.346 255.52Z" fill="#6600A0"></path><path d="M416.168 354.706L403.66 374.775L487.08 422.008L485.519 155.122L253.437 289.003L254.5 557.143L407.948 468.136L408.025 448.737L272.174 528.2V297.707L468.687 184.519L469.673 385.532L416.168 354.706Z" fill="#6600A0"></path><path d="M394.618 227.181V285.01L328.682 324.034V399.751L346.387 389.035V333.888L412.851 295.396V216.021L394.618 227.181Z" fill="#6600A0"></path></g><defs><clipPath id="clip0_303_320"><rect width="520" height="557.143" fill="white"></rect></clipPath></defs></svg>