<svg width="1384" height="1205" viewBox="0 0 1384 1205" fill="none" xmlns="http://www.w3.org/2000/svg">
<path d="M467.799 1026.36C214.017 976.528 51.0405 723.522 137.601 479.808C190.139 331.889 251.743 191.273 310.769 135C590.267 -131.459 1374.71 93.7601 1374.71 93.7601L1376.04 1204.71L467.799 1026.36Z" fill="#D2EEE4" fill-opacity="0.7"/>
<mask id="mask0_250_14360" style="mask-type:alpha" maskUnits="userSpaceOnUse" x="114" y="4" width="1263" height="1201">
<path d="M467.799 1026.36C214.017 976.528 51.0405 723.522 137.601 479.808C190.139 331.889 251.743 191.273 310.769 135C590.267 -131.459 1374.71 93.7601 1374.71 93.7601L1376.04 1204.71L467.799 1026.36Z" fill="#D2EEE4" fill-opacity="0.7"/>
</mask>
<g mask="url(#mask0_250_14360)">
<g opacity="0.33">
<g style="mix-blend-mode:screen" opacity="0.74">
<path d="M1458.54 981.441C1330.7 925.365 1147.93 1251.2 798.521 935.473C583.926 741.539 375.349 764.094 244.785 820.049C57.3664 900.358 -97.5877 1111.68 -106.32 1372.73C-115.051 1633.78 342.86 1346.9 537.759 1250.95C732.659 1155.01 1062.95 1336.93 1207.38 1397.43C1272.09 1424.52 1438.19 1502.77 1530.94 1431.96C1758.6 1258.06 1587.19 1037.89 1458.54 981.441Z" fill="#81DCBE" fill-opacity="0.55"/>
</g>
<g style="mix-blend-mode:screen" opacity="0.74">
<path d="M449.775 -99.9993C466.863 49.5915 527.605 368.794 970.568 199.893C1413.53 30.9914 1544.56 388.072 1544.56 388.072L1551.93 -57.2819L449.775 -99.9993Z" fill="#B3DBCD"/>
</g>
</g>
</g>
</svg>
