<svg xmlns="http://www.w3.org/2000/svg" width="1141" height="1130" viewBox="0 0 1141 1130" fill="none"><g opacity="0.7"><mask id="mask0_285_326" style="mask-type:alpha" maskUnits="userSpaceOnUse" x="-479" y="105" width="1583" height="956"><path opacity="0.5" d="M-469.754 699.299C-517.939 461.429 -363.25 234.381 -124.248 192.173L309.68 115.54C666.535 52.5189 1014.15 289.347 1086.09 644.511L1100.53 715.818C1116.98 797.012 1064.18 874.512 982.6 888.919L50.2435 1053.58C-188.759 1095.78 -421.57 937.169 -469.754 699.299Z" fill="#F1E2FF"></path></mask><g mask="url(#mask0_285_326)"><g opacity="0.45"><g style="mix-blend-mode:overlay"><path d="M518.839 375.145L518.378 375.302L337.349 190.064L1051.45 193.337L518.839 375.145ZM518.839 373.695L1043.39 194.67L340.77 191.436L518.839 373.695Z" fill="#5B2C87"></path><path d="M338.356 190.593L338.692 189.358L519.217 374.048L519.868 374.714L255.084 498.095L338.356 190.593ZM339.427 192.161L257.288 495.508L517.412 374.283L339.427 192.161Z" fill="#5B2C87"></path><path d="M239.109 655.208L237.913 654.933L518.063 374.028L518.734 373.362L772.204 778.373L239.109 655.208ZM240.663 654.169L769.202 776.413L518.462 375.635L240.663 654.169Z" fill="#5B2C87"></path><path d="M255.483 496.723V496.351L521.862 372.205L238.333 656.501L255.483 496.723ZM256.889 497.233L240.243 652.601L515.229 376.792L256.889 497.233Z" fill="#5B2C87"></path><path d="M770.546 778.06L769.601 777.844L959.656 450.134L960.181 449.213L1343.38 900.108L770.546 778.06ZM771.805 776.923L1339.64 897.932L960.412 451.683L771.805 776.923Z" fill="#5B2C87"></path><path d="M515.775 374.714L1047.13 193.356L1048.51 192.886L960.79 451.232L515.775 374.714ZM521.317 374.283L959.741 449.664L1046.22 195.121L521.317 374.283Z" fill="#5B2C87"></path><path d="M517.874 374.851L517.077 373.558L961.336 449.997L771.26 777.746L770.63 778.824L517.874 374.851ZM519.973 375.439L770.609 776.002L959.174 451.055L519.973 375.439Z" fill="#5B2C87"></path><path d="M959.719 450.879L958.04 448.919L1553.25 666.654L1554.21 666.987L1342.05 899.461L1341.49 900.088L959.719 450.879ZM962.553 452.016L1341.53 897.933L1551.76 667.634L962.553 452.016Z" fill="#5B2C87"></path><path d="M959.174 451.467L1046.96 193.102L1414.52 328.341L959.174 451.467ZM961.399 449.507L1410 328.086L1047.88 194.905L961.399 449.507Z" fill="#5B2C87"></path><path d="M960.013 451.056L957.914 450.311L1412.1 327.576L1412.73 327.4L1554.28 668.614L960.013 451.056ZM962.553 450.507L1551.69 666.105L1411.81 328.988L962.553 450.507Z" fill="#5B2C87"></path><path d="M622.83 911.79L770.294 776.903L770.588 776.648L1341.78 898.344L1347.62 899.598L622.83 911.79ZM626.483 910.359L1335.61 898.422L770.945 778.138L626.483 910.359Z" fill="#5B2C87"></path><path d="M238.857 655.11L235.73 653.032L772.141 777.021L625.076 911.652L624.635 912.064L238.857 655.11ZM242.825 656.07L624.489 910.182L769.328 777.766L242.825 656.07Z" fill="#5B2C87"></path><path d="M1032.96 194.082C1032.87 196.902 1033.68 199.683 1035.29 202.073C1036.9 204.463 1039.23 206.354 1041.98 207.508C1044.74 208.662 1047.8 209.027 1050.78 208.556C1053.76 208.085 1056.53 206.8 1058.72 204.863C1060.92 202.927 1062.45 200.425 1063.13 197.675C1063.8 194.924 1063.59 192.049 1062.52 189.412C1061.44 186.775 1059.55 184.495 1057.09 182.859C1054.63 181.224 1051.7 180.307 1048.68 180.225C1046.67 180.17 1044.67 180.485 1042.8 181.152C1040.92 181.818 1039.2 182.824 1037.74 184.111C1036.28 185.398 1035.11 186.941 1034.29 188.652C1033.47 190.362 1033.02 192.208 1032.96 194.082Z" fill="#5B2C87"></path><path d="M943.451 450.801C943.353 454.285 944.363 457.719 946.354 460.668C948.344 463.617 951.225 465.949 954.634 467.37C958.043 468.791 961.827 469.238 965.507 468.653C969.187 468.068 972.599 466.478 975.312 464.084C978.026 461.69 979.919 458.599 980.752 455.201C981.586 451.803 981.322 448.251 979.995 444.993C978.668 441.735 976.337 438.917 973.297 436.895C970.256 434.873 966.642 433.737 962.91 433.631C960.424 433.561 957.947 433.949 955.622 434.775C953.297 435.601 951.169 436.847 949.361 438.442C947.553 440.037 946.1 441.95 945.086 444.071C944.072 446.192 943.516 448.479 943.451 450.801Z" fill="#5B2C87"></path><path d="M615.106 910.81C615.048 912.558 615.548 914.284 616.541 915.767C617.535 917.251 618.977 918.426 620.686 919.143C622.396 919.86 624.294 920.088 626.142 919.797C627.99 919.506 629.704 918.71 631.066 917.509C632.429 916.308 633.379 914.757 633.797 913.051C634.215 911.345 634.081 909.562 633.413 907.928C632.744 906.293 631.571 904.881 630.043 903.869C628.514 902.857 626.698 902.292 624.825 902.244C623.584 902.21 622.348 902.405 621.188 902.817C620.028 903.229 618.967 903.851 618.064 904.646C617.161 905.442 616.436 906.396 615.928 907.453C615.42 908.511 615.141 909.651 615.106 910.81Z" fill="#5B2C87"></path><path d="M754.173 777.589C754.091 780.274 754.864 782.921 756.393 785.196C757.922 787.471 760.14 789.272 762.765 790.37C765.39 791.469 768.304 791.816 771.141 791.368C773.977 790.92 776.607 789.697 778.699 787.853C780.791 786.009 782.251 783.628 782.893 781.01C783.536 778.392 783.333 775.655 782.31 773.144C781.286 770.634 779.489 768.463 777.145 766.907C774.801 765.35 772.015 764.477 769.14 764.399C765.283 764.298 761.541 765.631 758.735 768.104C755.929 770.577 754.288 773.988 754.173 777.589Z" fill="#5B2C87"></path><path d="M227.732 652.562C227.659 654.848 228.313 657.104 229.612 659.043C230.912 660.982 232.798 662.518 235.032 663.456C237.267 664.394 239.749 664.693 242.165 664.313C244.581 663.934 246.822 662.894 248.605 661.326C250.388 659.757 251.633 657.729 252.182 655.5C252.73 653.271 252.559 650.939 251.688 648.801C250.818 646.663 249.288 644.814 247.292 643.487C245.296 642.161 242.923 641.418 240.474 641.351C238.848 641.304 237.229 641.557 235.708 642.095C234.187 642.633 232.795 643.446 231.612 644.488C230.428 645.529 229.476 646.778 228.811 648.164C228.145 649.549 227.778 651.044 227.732 652.562Z" fill="#5B2C87"></path><path d="M524.765 390.978C534.645 387.779 539.876 377.707 536.449 368.482C533.022 359.257 522.235 354.373 512.355 357.573C502.476 360.773 497.245 370.844 500.672 380.069C504.099 389.294 514.886 394.178 524.765 390.978Z" fill="#5B2C87"></path><path d="M330.338 190.514C330.272 192.129 330.721 193.725 331.629 195.101C332.536 196.476 333.861 197.569 335.434 198.24C337.008 198.912 338.76 199.132 340.468 198.872C342.175 198.612 343.762 197.885 345.026 196.782C346.29 195.678 347.175 194.25 347.568 192.676C347.961 191.103 347.844 189.456 347.233 187.945C346.622 186.433 345.544 185.125 344.135 184.187C342.727 183.249 341.051 182.722 339.322 182.675C337.018 182.606 334.779 183.392 333.095 184.862C331.411 186.331 330.42 188.364 330.338 190.514Z" fill="#5B2C87"></path><g opacity="0.28"><path d="M94.2906 825.746L255.63 732.372L256.113 732.686L580.596 952.205L575.957 950.989L94.2906 825.746ZM255.483 734.313L98.4678 825.178L571.696 948.147L255.483 734.313Z" fill="#5B2C87"></path><path d="M95.5083 826.942L102.435 601.857L103.821 603.033L257.057 733.47L95.5083 826.942ZM104.052 605.463L97.3345 824.021L254.181 733.294L104.052 605.463Z" fill="#5B2C87"></path><path d="M255.357 734.685L122.776 493.058H124.245L510.968 505.23L255.357 734.685ZM125.673 494.763L255.819 732.02L506.79 506.758L125.673 494.763Z" fill="#5B2C87"></path><path d="M258.547 736.959L102.246 603.935L123.762 491.392L258.547 736.959ZM104.178 603.347L252.649 729.746L124.602 496.41L104.178 603.347Z" fill="#5B2C87"></path><path d="M569.387 762.458L507.798 505.151H508.932L922.46 525.261L920.361 526.593L569.387 762.458ZM509.981 506.876L570.499 759.714L917.443 526.672L509.981 506.876Z" fill="#5B2C87"></path><path d="M577.111 951.754L575.684 950.793L252.418 732.255L570.688 760.341V761.067L577.111 951.754ZM258.674 734.43L575.264 948.52L569.114 761.831L258.674 734.43Z" fill="#5B2C87"></path><path d="M253.636 733.98L509.478 504.426L571.129 761.988L253.636 733.98ZM508.365 507.582L257.582 732.706L568.862 760.146L508.365 507.582Z" fill="#5B2C87"></path><path d="M566.825 762.184L920.298 524.751L1016.67 721.24L566.825 762.184ZM919.479 527.221L573.06 759.989L1014.09 719.848L919.479 527.221Z" fill="#5B2C87"></path><path d="M575.348 951.029V950.166L569.05 759.597L853.125 925.372L575.348 951.029ZM570.856 762.576L577.027 949.245L847.815 924.157L570.856 762.576Z" fill="#5B2C87"></path><path d="M567.33 760.518L569.869 760.283L1017.26 719.574L850.733 925.803L567.33 760.518ZM1013.5 721.534L572.556 761.655L850.313 923.647L1013.5 721.534Z" fill="#5B2C87"></path><path d="M508.365 506.798L435.672 388.042L437.771 388.63L927.015 527.142L508.365 506.798ZM439.345 390.766L509.393 505.23L912.888 524.829L439.345 390.766Z" fill="#5B2C87"></path><path d="M119.648 494.567L437.897 388.336L438.254 388.924L510.401 506.778L119.648 494.567ZM437.12 390.394L128.8 493.234L507.378 505.151L437.12 390.394Z" fill="#5B2C87"></path><path d="M566.427 947.501C566.948 945.577 568.069 943.84 569.647 942.511C571.225 941.182 573.19 940.319 575.293 940.032C577.396 939.745 579.543 940.047 581.463 940.9C583.382 941.752 584.988 943.117 586.076 944.821C587.165 946.526 587.688 948.493 587.58 950.475C587.471 952.457 586.735 954.365 585.466 955.956C584.196 957.548 582.449 958.752 580.447 959.417C578.444 960.082 576.275 960.178 574.215 959.692C572.846 959.369 571.559 958.798 570.426 958.01C569.294 957.223 568.339 956.235 567.616 955.103C566.893 953.971 566.415 952.716 566.211 951.412C566.007 950.108 566.081 948.778 566.427 947.501Z" fill="#5B2C87"></path><path d="M1017.23 725.222C1019.87 724.262 1021.17 721.489 1020.14 719.029C1019.11 716.568 1016.14 715.351 1013.51 716.311C1010.87 717.271 1009.57 720.044 1010.6 722.504C1011.63 724.965 1014.59 726.182 1017.23 725.222Z" fill="#5B2C87"></path><path d="M558.618 757.833C559.262 755.45 560.648 753.299 562.602 751.652C564.555 750.005 566.987 748.936 569.591 748.579C572.195 748.223 574.853 748.595 577.231 749.649C579.608 750.703 581.597 752.392 582.947 754.501C584.297 756.611 584.946 759.046 584.814 761.501C584.681 763.955 583.772 766.317 582.201 768.289C580.631 770.261 578.47 771.754 575.991 772.579C573.512 773.404 570.826 773.524 568.274 772.925C566.579 772.526 564.983 771.82 563.58 770.846C562.177 769.871 560.994 768.648 560.097 767.247C559.2 765.845 558.608 764.293 558.354 762.677C558.101 761.062 558.19 759.416 558.618 757.833Z" fill="#5B2C87"></path><path d="M910.411 525.319C910.805 523.853 911.655 522.528 912.856 521.513C914.056 520.497 915.552 519.837 917.154 519.616C918.756 519.395 920.393 519.623 921.857 520.27C923.32 520.917 924.545 521.956 925.377 523.253C926.208 524.551 926.609 526.05 926.528 527.56C926.447 529.071 925.888 530.525 924.922 531.738C923.956 532.952 922.626 533.871 921.1 534.378C919.575 534.886 917.922 534.96 916.351 534.59C914.248 534.095 912.44 532.841 911.327 531.103C910.213 529.364 909.883 527.284 910.411 525.319Z" fill="#5B2C87"></path><path d="M431.054 387.885C431.376 386.694 432.069 385.619 433.045 384.795C434.022 383.971 435.238 383.437 436.54 383.258C437.842 383.08 439.171 383.266 440.36 383.793C441.549 384.32 442.543 385.165 443.218 386.219C443.893 387.274 444.218 388.492 444.151 389.719C444.085 390.946 443.63 392.127 442.845 393.113C442.06 394.099 440.979 394.846 439.74 395.258C438.5 395.671 437.158 395.731 435.882 395.431C435.034 395.232 434.236 394.879 433.535 394.392C432.833 393.904 432.241 393.293 431.793 392.592C431.345 391.891 431.049 391.115 430.922 390.307C430.795 389.5 430.84 388.677 431.054 387.885Z" fill="#5B2C87"></path><path d="M497.743 502.897C498.238 501.062 499.305 499.404 500.808 498.135C502.312 496.866 504.186 496.042 506.191 495.767C508.197 495.492 510.245 495.78 512.076 496.592C513.906 497.405 515.438 498.706 516.476 500.332C517.514 501.958 518.012 503.834 517.908 505.725C517.803 507.615 517.1 509.434 515.888 510.951C514.675 512.468 513.008 513.615 511.097 514.247C509.187 514.878 507.118 514.967 505.153 514.5C503.85 514.194 502.625 513.65 501.547 512.901C500.469 512.151 499.56 511.211 498.872 510.133C498.184 509.056 497.73 507.862 497.536 506.62C497.342 505.378 497.413 504.113 497.743 502.897Z" fill="#5B2C87"></path><path d="M116.017 493.176C116.428 491.614 117.326 490.202 118.597 489.119C119.869 488.035 121.457 487.328 123.159 487.088C124.862 486.848 126.602 487.086 128.16 487.771C129.718 488.456 131.022 489.558 131.908 490.937C132.794 492.315 133.221 493.909 133.136 495.514C133.05 497.12 132.456 498.666 131.428 499.956C130.4 501.245 128.985 502.221 127.363 502.759C125.74 503.296 123.983 503.372 122.314 502.976C120.092 502.448 118.184 501.122 117.004 499.286C115.824 497.451 115.47 495.254 116.017 493.176Z" fill="#5B2C87"></path><path d="M242.699 730.295C243.344 727.912 244.732 725.761 246.687 724.115C248.641 722.468 251.074 721.4 253.679 721.045C256.284 720.69 258.943 721.064 261.32 722.12C263.697 723.176 265.685 724.867 267.033 726.978C268.381 729.089 269.028 731.527 268.892 733.981C268.757 736.436 267.844 738.798 266.271 740.768C264.698 742.739 262.534 744.229 260.053 745.051C257.572 745.874 254.886 745.99 252.334 745.387C248.913 744.578 245.977 742.534 244.17 739.703C242.363 736.873 241.834 733.489 242.699 730.295Z" fill="#5B2C87"></path><path d="M90.4702 824.061C90.7681 822.964 91.4071 821.974 92.307 821.217C93.2068 820.459 94.327 819.968 95.5259 819.804C96.7248 819.641 97.9488 819.813 99.043 820.298C100.137 820.784 101.053 821.562 101.674 822.533C102.295 823.504 102.594 824.626 102.533 825.756C102.472 826.885 102.054 827.973 101.331 828.881C100.609 829.789 99.614 830.477 98.4729 830.857C97.3319 831.238 96.0956 831.294 94.9204 831.018C93.3439 830.644 91.9905 829.702 91.1565 828.398C90.3224 827.094 90.0758 825.534 90.4702 824.061Z" fill="#5B2C87"></path><path d="M840.133 921.452C840.633 919.625 841.702 917.977 843.205 916.717C844.708 915.456 846.578 914.64 848.577 914.371C850.576 914.102 852.616 914.392 854.44 915.204C856.263 916.016 857.787 917.315 858.821 918.936C859.854 920.557 860.35 922.427 860.245 924.311C860.141 926.194 859.442 928.007 858.235 929.52C857.028 931.032 855.369 932.177 853.466 932.81C851.563 933.443 849.502 933.535 847.543 933.075C846.237 932.768 845.01 932.224 843.93 931.474C842.851 930.723 841.941 929.781 841.252 928.701C840.564 927.621 840.11 926.425 839.918 925.181C839.726 923.937 839.799 922.67 840.133 921.452Z" fill="#5B2C87"></path></g><g opacity="0.37"><path d="M1225.7 889.563L1224.67 888.348L915.932 523.379L919.395 525.339L1255.26 716.242V716.693L1225.7 889.563ZM922.103 528.495L1224.78 886.29L1253.64 716.967L922.103 528.495Z" fill="#5B2C87"></path><path d="M1256.35 718.496L917.359 525.79L1106.99 457.876L1256.35 718.496ZM920.676 526.084L1252.57 714.733L1106.34 459.582L920.676 526.084Z" fill="#5B2C87"></path><path d="M1106.76 461.346L974.519 61.9787L1203.64 68.8582L1106.76 461.346ZM976.471 63.4683L1106.62 456.191L1201.88 70.289L976.471 63.4683Z" fill="#5B2C87"></path><path d="M918.556 526.829L918.325 526.143L837.34 280.145L1108.13 458.915L918.556 526.829ZM839.985 283.555L919.479 525.045L1105.11 458.562L839.985 283.555Z" fill="#5B2C87"></path><path d="M1107.98 460.444L837.697 282.085L975.673 61.0182L976.176 62.5078L1107.98 460.444ZM839.628 281.654L1105.32 456.936L975.274 64.3698L839.628 281.654Z" fill="#5B2C87"></path><path d="M925.336 533.257C927.021 532.073 928.293 530.448 928.99 528.589C929.686 526.73 929.776 524.72 929.249 522.812C928.722 520.905 927.6 519.187 926.027 517.875C924.453 516.563 922.498 515.716 920.409 515.442C918.32 515.167 916.191 515.478 914.291 516.334C912.391 517.189 910.805 518.552 909.735 520.25C908.665 521.947 908.158 523.903 908.278 525.869C908.398 527.836 909.141 529.725 910.411 531.297C911.252 532.343 912.305 533.223 913.511 533.887C914.717 534.551 916.051 534.987 917.438 535.169C918.824 535.351 920.236 535.276 921.591 534.948C922.946 534.62 924.219 534.045 925.336 533.257Z" fill="#5B2C87"></path><path d="M1114.17 467.167C1116.26 465.701 1117.83 463.691 1118.7 461.391C1119.56 459.09 1119.68 456.602 1119.02 454.241C1118.37 451.879 1116.99 449.752 1115.04 448.126C1113.1 446.5 1110.68 445.45 1108.09 445.107C1105.51 444.765 1102.87 445.146 1100.52 446.202C1098.17 447.258 1096.2 448.942 1094.87 451.041C1093.54 453.14 1092.91 455.559 1093.05 457.993C1093.2 460.428 1094.11 462.767 1095.68 464.717C1096.72 466.012 1098.03 467.103 1099.52 467.927C1101.01 468.751 1102.67 469.292 1104.38 469.52C1106.1 469.747 1107.85 469.656 1109.53 469.253C1111.21 468.849 1112.79 468.14 1114.17 467.167Z" fill="#5B2C87"></path><path d="M845.926 289.435C847.54 288.317 848.762 286.777 849.438 285.01C850.114 283.243 850.214 281.328 849.724 279.508C849.235 277.688 848.179 276.045 846.689 274.786C845.199 273.526 843.343 272.708 841.355 272.434C839.367 272.159 837.337 272.442 835.52 273.245C833.704 274.048 832.184 275.337 831.152 276.947C830.12 278.557 829.623 280.417 829.723 282.291C829.823 284.165 830.516 285.969 831.715 287.475C832.508 288.477 833.506 289.323 834.651 289.964C835.795 290.605 837.064 291.028 838.385 291.211C839.705 291.393 841.051 291.33 842.345 291.025C843.639 290.72 844.856 290.18 845.926 289.435Z" fill="#5B2C87"></path></g><g opacity="0.13"><path d="M865.7 647.054L1263.07 645.094L1162.31 748.17L1161.85 748.013L865.7 647.054ZM1259.79 646.603L873.845 648.387L1161.97 746.719L1259.79 646.603Z" fill="#5B2C87"></path><path d="M1021.29 971.295L1162.05 746.327L1162.73 746.994L1318.06 902.695L1316.87 902.97L1021.29 971.295ZM1162.31 748.601L1024.27 969.178L1315.25 901.852L1162.31 748.601Z" fill="#5B2C87"></path><path d="M705.285 1038.58L918.073 788.173L918.598 789.075L1023.89 970.648L705.285 1038.58ZM917.842 790.682L709.021 1036.39L1021.79 969.746L917.842 790.682Z" fill="#5B2C87"></path><path d="M917.443 790.231L868.617 646.544L870.024 647.015L1164.95 747.68L917.443 790.231ZM870.926 648.779L918.451 788.683L1159.41 747.249L870.926 648.779Z" fill="#5B2C87"></path><path d="M1022.76 971.628L1022.15 970.569L916.834 788.957L917.821 788.781L1163.61 746.523L1162.81 747.797L1022.76 971.628ZM919.08 789.957L1022.8 968.845L1160.75 748.405L919.08 789.957Z" fill="#5B2C87"></path><path d="M707.174 1038.56L706.607 1037.93L589.056 909.104L590.021 908.752L920.277 787.899L918.577 789.859L707.174 1038.56ZM591.449 909.692L707.132 1036.42L915.701 791.035L591.449 909.692Z" fill="#5B2C87"></path><path d="M665.778 721.945L870.234 646.76L919.059 790.466L665.778 721.945ZM869.394 648.563L670.376 721.749L916.918 788.389L869.394 648.563Z" fill="#5B2C87"></path><path d="M588.93 910.594L667.605 721.024L668.235 721.2L920.13 789.369L588.93 910.594ZM668.487 722.69L591.511 908.183L915.68 789.545L668.487 722.69Z" fill="#5B2C87"></path><path d="M701.149 1038.07L1023.01 969.472L1023.3 969.727L1105.42 1044.93L701.149 1038.07ZM1022.55 970.981L713.093 1036.91L1101.68 1043.44L1022.55 970.981Z" fill="#5B2C87"></path><path d="M1103.53 1045.05L1103.11 1044.64L1021.35 969.864L1320.2 900.794L1103.53 1045.05ZM1024.25 970.569L1103.68 1043.23L1313.09 903.812L1024.25 970.569Z" fill="#5B2C87"></path><path d="M877.77 647.701C877.806 649.247 877.352 650.768 876.465 652.073C875.578 653.379 874.297 654.41 872.783 655.038C871.27 655.665 869.592 655.861 867.959 655.6C866.327 655.339 864.814 654.634 863.61 653.572C862.406 652.511 861.566 651.14 861.194 649.634C860.822 648.127 860.935 646.551 861.52 645.105C862.104 643.658 863.134 642.405 864.479 641.504C865.824 640.602 867.425 640.092 869.08 640.037C870.191 640.001 871.299 640.171 872.34 640.537C873.38 640.904 874.332 641.46 875.141 642.173C875.949 642.886 876.598 643.741 877.049 644.69C877.501 645.639 877.745 646.663 877.77 647.701Z" fill="#5B2C87"></path><path d="M594.24 909.183C594.265 909.925 594.053 910.657 593.633 911.287C593.212 911.917 592.601 912.417 591.877 912.724C591.153 913.031 590.348 913.131 589.563 913.011C588.779 912.892 588.049 912.558 587.467 912.053C586.885 911.547 586.476 910.892 586.292 910.17C586.107 909.448 586.155 908.691 586.431 907.994C586.706 907.298 587.196 906.693 587.838 906.256C588.481 905.818 589.248 905.568 590.042 905.537C590.575 905.516 591.107 905.594 591.607 905.766C592.108 905.939 592.566 906.202 592.957 906.541C593.347 906.88 593.662 907.288 593.882 907.742C594.102 908.195 594.224 908.685 594.24 909.183Z" fill="#5B2C87"></path><path d="M927.204 789.643C927.27 791.582 926.717 793.496 925.617 795.142C924.517 796.789 922.917 798.092 921.023 798.889C919.128 799.686 917.022 799.939 914.973 799.617C912.923 799.296 911.022 798.413 909.511 797.081C907.999 795.75 906.945 794.029 906.482 792.138C906.019 790.246 906.167 788.269 906.909 786.456C907.65 784.643 908.952 783.077 910.648 781.956C912.344 780.834 914.358 780.208 916.435 780.157C919.209 780.088 921.898 781.047 923.916 782.825C925.934 784.603 927.116 787.054 927.204 789.643Z" fill="#5B2C87"></path><path d="M714.563 1036.07C714.591 1037.26 714.242 1038.43 713.559 1039.43C712.876 1040.44 711.89 1041.23 710.725 1041.71C709.56 1042.19 708.269 1042.34 707.014 1042.14C705.76 1041.93 704.598 1041.38 703.676 1040.56C702.753 1039.74 702.112 1038.69 701.833 1037.53C701.553 1036.37 701.648 1035.16 702.106 1034.05C702.563 1032.94 703.362 1031.98 704.403 1031.29C705.443 1030.61 706.677 1030.22 707.951 1030.19C708.799 1030.17 709.643 1030.31 710.435 1030.59C711.226 1030.88 711.95 1031.3 712.564 1031.85C713.179 1032.4 713.672 1033.05 714.014 1033.78C714.357 1034.5 714.544 1035.28 714.563 1036.07Z" fill="#5B2C87"></path><path d="M1108.82 1044.01C1108.85 1044.97 1108.57 1045.93 1108.02 1046.74C1107.47 1047.56 1106.67 1048.21 1105.73 1048.6C1104.79 1048.99 1103.74 1049.12 1102.72 1048.96C1101.7 1048.79 1100.76 1048.35 1100.01 1047.69C1099.25 1047.03 1098.73 1046.17 1098.5 1045.23C1098.27 1044.29 1098.34 1043.31 1098.71 1042.41C1099.08 1041.5 1099.73 1040.72 1100.57 1040.17C1101.41 1039.61 1102.41 1039.29 1103.45 1039.27C1104.13 1039.25 1104.82 1039.36 1105.46 1039.59C1106.1 1039.81 1106.69 1040.16 1107.19 1040.6C1107.69 1041.04 1108.09 1041.57 1108.37 1042.15C1108.65 1042.74 1108.8 1043.37 1108.82 1044.01Z" fill="#5B2C87"></path><path d="M1031.93 970.452C1031.98 971.94 1031.55 973.409 1030.71 974.672C1029.86 975.935 1028.64 976.935 1027.18 977.547C1025.73 978.158 1024.11 978.353 1022.54 978.106C1020.97 977.86 1019.51 977.184 1018.35 976.163C1017.19 975.142 1016.38 973.822 1016.02 972.371C1015.66 970.92 1015.77 969.402 1016.34 968.01C1016.9 966.618 1017.9 965.415 1019.2 964.551C1020.5 963.688 1022.04 963.204 1023.64 963.161C1024.7 963.129 1025.75 963.293 1026.74 963.643C1027.73 963.993 1028.63 964.521 1029.41 965.199C1030.18 965.876 1030.8 966.689 1031.23 967.59C1031.66 968.492 1031.9 969.464 1031.93 970.452Z" fill="#5B2C87"></path><path d="M676.673 722.298C676.722 723.782 676.299 725.246 675.458 726.506C674.617 727.767 673.395 728.766 671.947 729.38C670.499 729.994 668.889 730.194 667.32 729.955C665.75 729.716 664.291 729.049 663.127 728.038C661.962 727.027 661.144 725.716 660.776 724.272C660.407 722.828 660.504 721.314 661.054 719.921C661.605 718.528 662.584 717.318 663.869 716.444C665.154 715.569 666.688 715.069 668.277 715.007C669.342 714.965 670.406 715.121 671.407 715.466C672.407 715.81 673.325 716.337 674.106 717.015C674.887 717.693 675.516 718.509 675.957 719.416C676.397 720.323 676.641 721.303 676.673 722.298Z" fill="#5B2C87"></path></g><g opacity="0.13"><path d="M206.616 355.467L209.806 353.84L845.297 26.5225L780.014 275.284H779.594L206.616 355.467ZM843.24 28.8353L213.501 353.272L778.859 274.128L843.24 28.8353Z" fill="#5B2C87"></path><path d="M778.649 275.303L778.859 274.519L843.932 26.4047L844.75 27.2279L1080.63 265.053H1079.2L778.649 275.303ZM844.667 28.8939L780.265 274.029L1077.67 263.916L844.667 28.8939Z" fill="#5B2C87"></path><path d="M763.724 753.011V751.561L778.817 273.814L779.657 274.088L1178.32 398.136L1177.5 398.841L763.724 753.011ZM780.119 275.499L765.11 750.169L1175.83 398.645L780.119 275.499Z" fill="#5B2C87"></path><path d="M775.857 274.167L1079.52 263.857L1079.73 264.151L1178.7 399.527L775.857 274.167ZM1078.85 265.112L783.12 275.147L1175.45 397.234L1078.85 265.112Z" fill="#5B2C87"></path><path d="M314.805 1123.33L422.322 543.763L423.162 544.272L765.572 751.521L764.921 752.051L314.805 1123.33ZM423.267 545.801L316.736 1120.08L763.346 751.6L423.267 545.801Z" fill="#5B2C87"></path><path d="M422.763 545.566L422.343 545.194L208.715 353.958L210.016 353.762L781.756 273.736L422.763 545.566ZM211.528 354.781L422.826 543.939L777.222 275.598L211.528 354.781Z" fill="#5B2C87"></path><path d="M765.047 752.697L421.692 544.821L780.265 273.343L765.047 752.697ZM423.896 544.704L763.808 750.502L778.796 275.989L423.896 544.704Z" fill="#5B2C87"></path><path d="M3.35681 1010.67L3.94463 1010.02L423.77 542.646L423.35 544.86L316.358 1122.55L315.623 1122.27L3.35681 1010.67ZM421.734 546.879L5.53999 1010.14L315.266 1120.88L421.734 546.879Z" fill="#5B2C87"></path><path d="M-48.7648 642.585L210.058 353.487L210.561 353.938L424.127 545.135L422.93 545.37L-48.7648 642.585ZM210.163 355.251L-45.3224 640.625L421.461 544.41L210.163 355.251Z" fill="#5B2C87"></path><path d="M3.98668 1011.87L-47.7776 641.174L-47.1898 641.057L424.526 543.822L3.98668 1011.87ZM-46.3924 642.095L4.8474 1008.95L421 545.742L-46.3924 642.095Z" fill="#5B2C87"></path><path d="M311.32 1124.57L764.249 750.933L967.466 804.637L966.017 805.343L311.32 1124.57ZM764.585 752.168L320.22 1118.69L963.96 804.774L764.585 752.168Z" fill="#5B2C87"></path><path d="M763.115 751.874L763.976 751.129L1179.1 395.784L966.059 805.519L965.535 805.382L763.115 751.874ZM1174.99 401.037L765.656 751.345L965.304 804.108L1174.99 401.037Z" fill="#5B2C87"></path><path d="M223.135 347.823C224.694 350.317 225.426 353.187 225.237 356.07C225.049 358.953 223.95 361.718 222.078 364.017C220.207 366.317 217.647 368.046 214.723 368.987C211.799 369.928 208.641 370.038 205.65 369.303C202.659 368.569 199.968 367.023 197.918 364.86C195.868 362.698 194.551 360.016 194.133 357.155C193.715 354.293 194.215 351.381 195.57 348.785C196.925 346.189 199.074 344.026 201.745 342.57C203.519 341.604 205.48 340.973 207.515 340.714C209.55 340.455 211.619 340.572 213.606 341.06C215.592 341.548 217.456 342.396 219.091 343.556C220.726 344.717 222.1 346.167 223.135 347.823Z" fill="#5B2C87"></path><path d="M10.7668 1006.75C11.5034 1007.94 11.8468 1009.3 11.7541 1010.67C11.6615 1012.04 11.1368 1013.35 10.2461 1014.44C9.35546 1015.53 8.13871 1016.35 6.74973 1016.79C5.36076 1017.24 3.86165 1017.29 2.44181 1016.94C1.02196 1016.59 -0.254914 1015.85 -1.22783 1014.83C-2.20074 1013.8 -2.82602 1012.53 -3.02459 1011.17C-3.22316 1009.81 -2.98609 1008.43 -2.3435 1007.19C-1.70091 1005.96 -0.681659 1004.93 0.585851 1004.24C1.43026 1003.78 2.36398 1003.48 3.33327 1003.36C4.30256 1003.23 5.28854 1003.29 6.23443 1003.52C7.18033 1003.76 8.0675 1004.16 8.84528 1004.71C9.62306 1005.27 10.2762 1005.96 10.7668 1006.75Z" fill="#5B2C87"></path><path d="M438.108 537.295C440.036 540.382 440.94 543.934 440.706 547.502C440.472 551.069 439.111 554.492 436.794 557.337C434.477 560.181 431.308 562.321 427.689 563.484C424.07 564.648 420.162 564.783 416.461 563.873C412.759 562.963 409.43 561.049 406.893 558.372C404.357 555.695 402.728 552.376 402.211 548.835C401.695 545.294 402.315 541.689 403.993 538.476C405.671 535.264 408.331 532.588 411.638 530.788C413.833 529.592 416.259 528.812 418.778 528.492C421.297 528.172 423.858 528.318 426.316 528.922C428.774 529.526 431.081 530.577 433.104 532.014C435.127 533.45 436.827 535.245 438.108 537.295Z" fill="#5B2C87"></path><path d="M974.078 800.227C975.044 801.769 975.499 803.544 975.384 805.328C975.27 807.112 974.592 808.823 973.436 810.247C972.28 811.671 970.698 812.743 968.89 813.327C967.081 813.912 965.128 813.982 963.277 813.53C961.425 813.078 959.759 812.124 958.489 810.788C957.218 809.452 956.4 807.794 956.139 806.024C955.877 804.254 956.183 802.451 957.019 800.844C957.854 799.236 959.181 797.896 960.832 796.993C963.049 795.786 965.688 795.449 968.171 796.055C970.653 796.661 972.777 798.161 974.078 800.227Z" fill="#5B2C87"></path><path d="M779.383 744.211C780.873 746.587 781.574 749.323 781.397 752.072C781.221 754.82 780.175 757.459 778.392 759.652C776.609 761.845 774.169 763.496 771.381 764.394C768.594 765.292 765.583 765.398 762.731 764.698C759.879 763.998 757.313 762.523 755.359 760.461C753.404 758.399 752.149 755.841 751.752 753.113C751.355 750.384 751.834 747.607 753.128 745.133C754.422 742.658 756.473 740.598 759.022 739.213C760.71 738.292 762.576 737.691 764.513 737.444C766.45 737.197 768.421 737.308 770.312 737.773C772.202 738.237 773.977 739.044 775.534 740.149C777.09 741.254 778.398 742.634 779.383 744.211Z" fill="#5B2C87"></path><path d="M796.198 265.562C798.118 268.655 799.012 272.211 798.767 275.779C798.523 279.347 797.15 282.766 794.823 285.606C792.496 288.445 789.32 290.576 785.695 291.729C782.071 292.882 778.162 293.005 774.463 292.084C770.763 291.162 767.439 289.236 764.912 286.55C762.385 283.864 760.769 280.539 760.266 276.994C759.764 273.45 760.399 269.847 762.09 266.639C763.782 263.432 766.455 260.765 769.77 258.977C774.211 256.581 779.488 255.929 784.443 257.164C789.399 258.398 793.626 261.419 796.198 265.562Z" fill="#5B2C87"></path></g><g opacity="0.52"><path d="M38.8529 843.425H39.3356L148.07 1067.14L-516.43 862.653L38.8529 843.425ZM38.4119 844.778L-508.411 863.633L145.405 1064.88L38.4119 844.778Z" fill="#5B2C87"></path><path d="M147.336 1066.35L146.643 1067.41L38.2231 844.366L37.8243 843.562L324.46 803.265L147.336 1066.35ZM146.832 1064.59L321.584 805.029L39.9235 844.621L146.832 1064.59Z" fill="#5B2C87"></path><path d="M390.226 661.303L391.255 661.911L39.2725 844.66L38.4328 845.111L-66.7125 396.039L390.226 661.303ZM388.421 661.833L-64.6554 398.842L39.2725 843.053L388.421 661.833Z" fill="#5B2C87"></path><path d="M323.684 804.422L323.516 804.755L35.0743 845.287L391.359 660.323L323.684 804.422ZM322.529 803.54L388.337 663.42L42.6731 842.876L322.529 803.54Z" fill="#5B2C87"></path><path d="M41.5186 844.66L-512.4 863.77H-513.869L-348.436 647.74L41.5186 844.66ZM36.2289 843.504L-347.912 649.465L-510.888 862.32L36.2289 843.504Z" fill="#5B2C87"></path><path d="M39.5663 843.935L39.9023 845.366L-349.444 648.818L-66.2088 396.96L-65.2853 396.137L39.5663 843.935ZM37.8449 842.798L-66.1458 398.744L-346.967 648.505L37.8449 842.798Z" fill="#5B2C87"></path><path d="M115.702 313.857L-65.3901 398.136L-65.747 398.293L-558.727 123.699L-563.786 120.876L115.702 313.857ZM111.839 314.17L-552.955 125.188L-65.684 396.666L111.839 314.17Z" fill="#5B2C87"></path><path d="M390.415 661.48L392.661 664.283L-67.1743 397.372L113.351 313.484L113.876 313.229L390.415 661.48ZM387.035 659.52L113.561 314.915L-64.2357 397.509L387.035 659.52Z" fill="#5B2C87"></path><path d="M122.503 316.973C123.12 315.358 123.211 313.609 122.763 311.947C122.315 310.285 121.349 308.784 119.987 307.634C118.625 306.485 116.929 305.738 115.112 305.489C113.296 305.24 111.441 305.5 109.783 306.236C108.125 306.972 106.738 308.15 105.797 309.622C104.856 311.094 104.405 312.794 104.499 314.506C104.594 316.218 105.23 317.865 106.327 319.239C107.424 320.613 108.934 321.653 110.664 322.226C112.98 322.992 115.528 322.87 117.747 321.885C119.967 320.901 121.677 319.134 122.503 316.973Z" fill="#5B2C87"></path><path d="M399.966 666.987C400.774 664.877 400.893 662.59 400.309 660.416C399.725 658.242 398.463 656.279 396.683 654.775C394.903 653.271 392.686 652.293 390.311 651.966C387.936 651.639 385.511 651.977 383.342 652.938C381.173 653.898 379.358 655.438 378.126 657.362C376.895 659.286 376.302 661.507 376.424 663.746C376.545 665.984 377.374 668.139 378.808 669.937C380.241 671.735 382.213 673.096 384.474 673.847C385.974 674.348 387.564 674.568 389.155 674.494C390.746 674.42 392.305 674.054 393.744 673.417C395.183 672.78 396.473 671.884 397.541 670.781C398.608 669.677 399.432 668.388 399.966 666.987Z" fill="#5B2C87"></path><path d="M56.3387 849.893C57.5654 846.669 57.7408 843.177 56.8429 839.86C55.9451 836.542 54.0145 833.548 51.2945 831.255C48.5746 828.962 45.1876 827.473 41.5617 826.976C37.9359 826.48 34.2339 826.998 30.9234 828.466C27.6129 829.933 24.8425 832.284 22.9625 835.221C21.0824 838.158 20.1769 841.55 20.3606 844.967C20.5442 848.385 21.8088 851.675 23.9943 854.421C26.1799 857.168 29.1882 859.248 32.6394 860.399C37.2742 861.938 42.3742 861.697 46.8183 859.727C51.2623 857.757 54.6867 854.22 56.3387 849.893Z" fill="#5B2C87"></path><path d="M154.725 1068.69C155.295 1067.2 155.38 1065.58 154.967 1064.05C154.555 1062.51 153.664 1061.13 152.408 1060.07C151.152 1059 149.587 1058.31 147.911 1058.08C146.234 1057.85 144.522 1058.09 142.991 1058.77C141.46 1059.45 140.179 1060.53 139.309 1061.89C138.44 1063.25 138.021 1064.82 138.107 1066.4C138.192 1067.98 138.777 1069.5 139.788 1070.77C140.8 1072.04 142.192 1073 143.788 1073.53C145.926 1074.23 148.276 1074.12 150.325 1073.21C152.374 1072.31 153.956 1070.68 154.725 1068.69Z" fill="#5B2C87"></path></g><g opacity="0.28"><path d="M580.386 543.175L399.861 584.687L399.525 584.256L168.033 288.2L171.959 290.65L580.386 543.175ZM400.491 582.884L576.23 542.509L174.961 294.394L400.491 582.884Z" fill="#5B2C87"></path><path d="M579.63 541.764L500.346 749.522L499.422 748.033L398.832 583.237L579.63 541.764ZM499.989 745.818L576.985 543.939L401.435 584.335L499.989 745.818Z" fill="#5B2C87"></path><path d="M400.785 582.649L446.147 845.287L444.803 844.836L88.3085 724.376L400.785 582.649ZM444.027 842.857L399.483 585.001L92.6538 724.16L444.027 842.857Z" fill="#5B2C87"></path><path d="M398.56 579.631L501.081 747.7L444.615 846.522L398.56 579.631ZM499.192 747.719L401.708 588.019L445.517 841.622L499.192 747.719Z" fill="#5B2C87"></path><path d="M117.088 468.147L91.2264 725.454L90.1768 725.062L-288.737 589.666L-286.428 588.98L117.088 468.147ZM89.7989 723.141L115.22 470.303L-283.615 589.627L89.7989 723.141Z" fill="#5B2C87"></path><path d="M171.161 289.533L172.19 290.846L402.653 585.707L115.072 469.734L115.282 469.048L171.161 289.533ZM397.615 581.943L171.833 293.081L117.15 468.833L397.615 581.943Z" fill="#5B2C87"></path><path d="M402.17 583.786L89.4 725.571L115.282 468.108L402.17 583.786ZM91.4992 722.945L398.119 583.786L116.836 470.362L91.4992 722.945Z" fill="#5B2C87"></path><path d="M119.376 469.127L-286.89 590.646L-313.129 380.3L119.376 469.127ZM-285.441 588.686L112.868 469.499L-311.156 382.456L-285.441 588.686Z" fill="#5B2C87"></path><path d="M172.567 290.709L172.315 291.532L116.5 470.91L-94.6731 236.32L172.567 290.709ZM115.744 467.637L170.321 291.905L-90.2647 238.848L115.744 467.637Z" fill="#5B2C87"></path><path d="M118.389 470.655L115.954 470.146L-314.221 381.75L-92.2588 236.515L118.389 470.655ZM-310.085 381.084L113.939 468.107L-92.5107 238.789L-310.085 381.084Z" fill="#5B2C87"></path><path d="M91.2259 723.67L120.614 854.852L118.851 853.715L-292.39 586.589L91.2259 723.67ZM118.011 851.285L89.7566 724.846L-279.963 592.704L118.011 851.285Z" fill="#5B2C87"></path><path d="M449.568 844.738L118.599 853.872L118.452 853.225L89.337 723.023L449.568 844.738ZM120.005 852.245L440.668 843.406L91.625 725.454L120.005 852.245Z" fill="#5B2C87"></path><path d="M179.746 296.511C178.64 298.148 177.038 299.443 175.144 300.231C173.25 301.019 171.148 301.266 169.104 300.94C167.06 300.614 165.165 299.73 163.659 298.4C162.152 297.069 161.102 295.352 160.639 293.464C160.177 291.577 160.324 289.604 161.062 287.794C161.799 285.985 163.094 284.42 164.784 283.297C166.473 282.174 168.481 281.543 170.553 281.484C172.626 281.426 174.671 281.942 176.43 282.967C177.602 283.651 178.619 284.544 179.421 285.596C180.223 286.648 180.794 287.837 181.102 289.095C181.411 290.354 181.45 291.657 181.217 292.929C180.984 294.202 180.484 295.419 179.746 296.511Z" fill="#5B2C87"></path><path d="M125.631 475.497C124.269 477.539 122.289 479.16 119.941 480.152C117.594 481.145 114.983 481.465 112.441 481.073C109.898 480.681 107.537 479.594 105.655 477.95C103.774 476.305 102.457 474.177 101.871 471.833C101.284 469.49 101.455 467.037 102.361 464.785C103.267 462.532 104.868 460.581 106.962 459.177C109.055 457.774 111.547 456.981 114.123 456.9C116.699 456.818 119.242 457.451 121.433 458.719C124.37 460.426 126.463 463.151 127.25 466.297C128.037 469.443 127.455 472.751 125.631 475.497Z" fill="#5B2C87"></path><path d="M124.792 856.302C124.11 857.32 123.122 858.127 121.95 858.621C120.778 859.115 119.476 859.273 118.208 859.077C116.939 858.88 115.762 858.338 114.824 857.517C113.885 856.696 113.229 855.634 112.936 854.465C112.644 853.296 112.729 852.073 113.18 850.949C113.632 849.825 114.43 848.851 115.473 848.15C116.517 847.449 117.76 847.053 119.045 847.011C120.329 846.969 121.599 847.283 122.692 847.914C124.161 848.767 125.208 850.13 125.601 851.702C125.995 853.275 125.703 854.93 124.792 856.302Z" fill="#5B2C87"></path><path d="M99.8535 730.295C98.7969 731.864 97.2658 733.104 95.4538 733.861C93.6419 734.617 91.6305 734.854 89.6741 734.543C87.7176 734.232 85.9041 733.386 84.4626 732.112C83.0212 730.838 82.0165 729.194 81.5761 727.387C81.1356 725.58 81.2789 723.691 81.9878 721.961C82.6968 720.23 83.9396 718.734 85.5591 717.663C87.1785 716.591 89.1017 715.993 91.0857 715.942C93.0696 715.891 95.0252 716.391 96.7048 717.379C98.9563 718.702 100.553 720.806 101.143 723.228C101.734 725.65 101.27 728.192 99.8535 730.295Z" fill="#5B2C87"></path><path d="M452.507 846.973C451.611 848.307 450.31 849.363 448.771 850.006C447.231 850.65 445.522 850.852 443.859 850.588C442.196 850.324 440.655 849.605 439.43 848.523C438.205 847.44 437.351 846.042 436.978 844.506C436.604 842.97 436.727 841.366 437.331 839.895C437.934 838.424 438.992 837.154 440.369 836.245C441.746 835.336 443.382 834.829 445.068 834.788C446.754 834.748 448.415 835.175 449.841 836.016C450.788 836.572 451.607 837.296 452.254 838.147C452.9 838.999 453.36 839.961 453.608 840.979C453.855 841.996 453.885 843.049 453.696 844.078C453.508 845.107 453.104 846.09 452.507 846.973Z" fill="#5B2C87"></path><path d="M411.486 589.578C414.934 583.677 412.607 576.283 406.287 573.063C399.967 569.843 392.049 572.017 388.6 577.918C385.152 583.818 387.479 591.212 393.799 594.432C400.119 597.652 408.037 595.479 411.486 589.578Z" fill="#5B2C87"></path><path d="M583.409 545.86C582.776 546.804 581.857 547.551 580.769 548.007C579.681 548.462 578.473 548.607 577.297 548.421C576.121 548.235 575.031 547.727 574.165 546.962C573.298 546.197 572.694 545.21 572.429 544.124C572.164 543.038 572.25 541.904 572.676 540.864C573.103 539.824 573.85 538.926 574.823 538.282C575.797 537.639 576.953 537.28 578.145 537.251C579.337 537.222 580.511 537.524 581.52 538.118C582.867 538.913 583.823 540.174 584.177 541.625C584.531 543.076 584.255 544.599 583.409 545.86Z" fill="#5B2C87"></path></g><g opacity="0.13"><path d="M79.7855 172.443L-199.546 345.765L-199.756 344.765L-239.114 145.827L79.7855 172.443ZM-198.538 343.531L75.6082 173.443L-237.372 147.258L-198.538 343.531Z" fill="#5B2C87"></path><path d="M78.0224 171.934L78.3583 172.678L146.265 325.949H145.279L-201.666 345.392L-199.44 344.021L78.0224 171.934ZM144.187 324.813L77.3718 174.051L-196.439 343.923L144.187 324.813Z" fill="#5B2C87"></path><path d="M14.0833 478.711L-200.826 491.118L-199.818 343.393L14.0833 478.711ZM-199.377 489.687L9.80096 477.613L-198.412 345.902L-199.377 489.687Z" fill="#5B2C87"></path><path d="M146.811 324.577L12.1516 479.064L11.6058 478.711L-201.183 344.099L146.811 324.577ZM11.8577 477.26L143.641 326.087L-196.901 345.216L11.8577 477.26Z" fill="#5B2C87"></path><path d="M83.48 174.09L-238.695 147.258L-238.883 146.924L-291.11 53.7466L83.48 174.09ZM-237.687 145.925L72.0186 171.777L-288.066 56.1378L-237.687 145.925Z" fill="#5B2C87"></path><path d="M141.416 324.401C141.634 323.701 142.069 323.078 142.667 322.609C143.264 322.14 143.997 321.847 144.773 321.767C145.549 321.688 146.333 321.824 147.026 322.16C147.718 322.497 148.289 323.017 148.664 323.656C149.04 324.295 149.204 325.023 149.137 325.749C149.069 326.475 148.773 327.166 148.284 327.735C147.796 328.303 147.138 328.724 146.394 328.944C145.65 329.163 144.852 329.172 144.103 328.968C143.098 328.695 142.25 328.061 141.747 327.204C141.243 326.348 141.124 325.339 141.416 324.401Z" fill="#5B2C87"></path><path d="M70.3397 172.169C70.6972 171.054 71.4012 170.063 72.3625 169.321C73.3238 168.58 74.499 168.122 75.7395 168.005C76.98 167.888 78.2298 168.117 79.3305 168.664C80.4312 169.211 81.3334 170.05 81.9226 171.076C82.5118 172.102 82.7614 173.268 82.6401 174.427C82.5188 175.586 82.0319 176.685 81.241 177.585C80.4501 178.485 79.3909 179.145 78.1976 179.482C77.0043 179.82 75.7307 179.819 74.538 179.48C72.9453 179.027 71.6095 178.003 70.8228 176.633C70.036 175.263 69.8624 173.658 70.3397 172.169Z" fill="#5B2C87"></path><path d="M16.645 483.226C20.0531 480.688 20.6127 476.051 17.895 472.869C15.1773 469.687 10.2113 469.164 6.80324 471.702C3.39515 474.24 2.83545 478.876 5.55318 482.059C8.2709 485.241 13.2369 485.763 16.645 483.226Z" fill="#5B2C87"></path></g><path d="M121.978 920.453L118.494 921.08L-579.782 1046.89L-438.426 833.449H-438.006L121.978 920.453ZM-577.158 1045.23L114.841 920.531L-437.713 834.782L-577.158 1045.23Z" fill="#5B2C87"></path><path d="M269.652 174.247L-18.139 684.098L-18.7478 683.392L-270.643 393.628L-269.867 393.314L269.652 174.247ZM-18.3489 681.883L266.818 176.657L-268.691 394.098L-18.3489 681.883Z" fill="#5B2C87"></path><path d="M-17.9496 682.334L-17.6767 682.804L119.543 921.335L118.263 921.139L-440.525 834.409L-17.9496 682.334ZM117.192 919.767L-18.5374 683.824L-435.697 833.959L117.192 919.767Z" fill="#5B2C87"></path><path d="M523.479 367.129L522.723 367.56L-19.9229 684.706L-18.8105 682.746L268.078 174.56L268.686 175.011L523.479 367.129ZM-16.5643 681.354L521.295 366.992L268.434 176.403L-16.5643 681.354Z" fill="#5B2C87"></path><path d="M452.948 724.905L118.137 921.335L117.801 920.766L-19.3771 682.334L-18.1807 682.452L452.948 724.905ZM118.599 919.649L449.085 725.748L-17.1101 683.726L118.599 919.649Z" fill="#5B2C87"></path><path d="M523.29 365.835L451.542 725.963H450.954L-20.1744 683.49L523.29 365.835ZM450.492 724.67L521.485 368.285L-16.3121 682.608L450.492 724.67Z" fill="#5B2C87"></path><path d="M273.304 174.07L-269.782 394.53L-441.911 287.142L-440.315 286.887L273.304 174.07ZM-269.656 393.177L263.166 176.893L-438.426 287.808L-269.656 393.177Z" fill="#5B2C87"></path><path d="M104.115 922.922C103.467 920.158 103.711 917.276 104.817 914.641C105.923 912.006 107.841 909.736 110.328 908.119C112.816 906.502 115.761 905.61 118.791 905.556C121.822 905.502 124.801 906.288 127.353 907.816C129.905 909.343 131.914 911.542 133.127 914.136C134.34 916.729 134.702 919.601 134.167 922.386C133.632 925.172 132.224 927.747 130.122 929.786C128.02 931.824 125.317 933.235 122.356 933.839C118.387 934.649 114.235 933.955 110.815 931.907C107.394 929.86 104.984 926.628 104.115 922.922Z" fill="#5B2C87"></path><path d="M515.313 368.736C515.01 367.422 515.13 366.053 515.66 364.802C516.19 363.552 517.104 362.477 518.288 361.711C519.472 360.946 520.873 360.526 522.313 360.504C523.752 360.481 525.167 360.858 526.378 361.586C527.588 362.314 528.541 363.361 529.114 364.594C529.688 365.827 529.857 367.192 529.601 368.515C529.345 369.838 528.674 371.06 527.674 372.027C526.674 372.995 525.389 373.664 523.982 373.95C523.046 374.14 522.079 374.156 521.137 373.996C520.194 373.837 519.295 373.506 518.489 373.022C517.684 372.537 516.989 371.91 516.444 371.174C515.899 370.439 515.515 369.61 515.313 368.736Z" fill="#5B2C87"></path><path d="M-34.8894 685.607C-35.6713 682.201 -35.3557 678.655 -33.9823 675.416C-32.609 672.178 -30.2393 669.391 -27.1722 667.408C-24.1051 665.425 -20.4779 664.334 -16.7478 664.273C-13.0177 664.212 -9.35178 665.184 -6.21218 667.065C-3.07258 668.947 -0.599834 671.654 0.894165 674.846C2.38816 678.038 2.83673 681.571 2.18306 685.001C1.52938 688.431 -0.197132 691.603 -2.7788 694.117C-5.36047 696.632 -8.68171 698.376 -12.3238 699.131C-14.7571 699.635 -17.2732 699.685 -19.7271 699.277C-22.181 698.869 -24.5242 698.012 -26.6218 696.755C-28.7194 695.498 -30.5298 693.866 -31.9488 691.953C-33.3678 690.039 -34.3671 687.883 -34.8894 685.607Z" fill="#5B2C87"></path><path d="M255.483 180.303C254.992 178.197 255.182 176.003 256.026 173.998C256.871 171.992 258.333 170.266 260.229 169.037C262.124 167.807 264.368 167.13 266.675 167.091C268.983 167.052 271.251 167.652 273.193 168.816C275.135 169.98 276.664 171.656 277.586 173.631C278.508 175.607 278.783 177.793 278.375 179.914C277.966 182.035 276.894 183.995 275.293 185.547C273.692 187.099 271.634 188.173 269.379 188.633C267.881 188.939 266.333 188.966 264.824 188.712C263.314 188.459 261.873 187.931 260.582 187.157C259.292 186.383 258.177 185.38 257.302 184.204C256.427 183.028 255.809 181.702 255.483 180.303Z" fill="#5B2C87"></path><path d="M435.483 727.218C434.868 724.585 435.103 721.842 436.158 719.334C437.213 716.826 439.041 714.667 441.411 713.13C443.78 711.592 446.585 710.745 449.47 710.696C452.355 710.647 455.191 711.397 457.619 712.853C460.047 714.309 461.959 716.404 463.111 718.874C464.264 721.344 464.606 724.077 464.095 726.729C463.584 729.381 462.242 731.831 460.239 733.771C458.236 735.71 455.662 737.052 452.843 737.625C449.063 738.394 445.11 737.73 441.854 735.778C438.599 733.826 436.307 730.747 435.483 727.218Z" fill="#5B2C87"></path></g></g></g></g><path opacity="0.5" d="M-459.069 697.869C-507.253 459.999 -352.565 232.951 -113.562 190.743L320.365 114.11C677.22 51.0889 1024.83 287.917 1096.78 643.081L1111.22 714.388C1127.67 795.582 1074.87 873.082 993.286 887.489L60.9288 1052.15C-178.074 1094.35 -410.884 935.739 -459.069 697.869Z" fill="#DED4E7" fill-opacity="0.7"></path></svg>