<svg width="627" height="634" viewBox="0 0 627 634" fill="none" xmlns="http://www.w3.org/2000/svg">
<g opacity="0.5">
<path d="M170.197 572.932C189.074 572.985 207.849 570.17 225.88 564.584C242.765 559.36 259.207 552.799 275.051 544.966L275.268 544.849V469.832L274.684 470.199C259.162 479.738 243.032 488.249 226.398 495.678C209.888 502.999 192.014 506.737 173.954 506.647C153.718 506.647 137.539 502.874 125.852 495.444C114.164 488.014 108.304 477.078 108.304 463.02C108.304 448.961 113.313 437.441 123.214 428.959C133.115 420.477 150.729 416.103 175.557 416.103H229.102V349.818H174.488C157.491 349.818 144.752 346.145 136.638 338.915C132.795 335.702 129.708 331.681 127.595 327.139C125.483 322.596 124.397 317.644 124.416 312.635C124.416 302.768 127.087 294.904 132.363 289.26C138.234 283.281 145.585 278.965 153.668 276.755C163.223 274.002 173.127 272.653 183.07 272.747C195.696 272.847 208.269 274.404 220.537 277.389C233.327 280.411 249.205 286.455 267.705 295.338L268.256 295.605V228.168L268.055 228.068C254.069 220.974 239.372 215.378 224.21 211.371C207.98 207.045 191.252 204.872 174.455 204.91C158.417 204.865 142.433 206.765 126.854 210.57C112.391 214.005 98.6346 219.926 86.1978 228.068C74.4471 235.877 64.6637 246.301 57.6135 258.522C50.4841 270.844 46.8944 285.871 46.8944 303.035C46.7768 312.52 48.7134 321.918 52.5712 330.584C56.1339 338.517 60.8547 345.877 66.5795 352.423C71.6202 358.254 77.5409 363.262 84.1274 367.266C88.774 370.12 93.7683 372.364 98.9873 373.944C91.3647 376.549 84.109 380.123 77.3988 384.58C68.9884 390.077 61.3659 396.694 54.7418 404.248C47.5458 412.466 41.8035 421.85 37.7615 431.998C33.3413 443.24 31.1413 455.232 31.2833 467.311C31.2833 486.278 35.1068 502.59 42.6201 515.83C50.1289 529.069 60.769 540.266 73.6087 548.439C87.2599 557.091 102.276 563.374 118.021 567.022C135.123 571.02 152.634 573.004 170.197 572.932ZM274.483 544.381C258.743 552.148 242.413 558.657 225.646 563.849C207.693 569.426 188.997 572.241 170.197 572.198C152.696 572.266 135.247 570.288 118.205 566.304C102.549 562.681 87.6177 556.438 74.0428 547.838C61.3069 539.732 50.7527 528.628 43.3047 515.497C35.858 502.373 32.0847 486.178 32.0847 467.361C31.9293 455.368 34.1068 443.46 38.4961 432.298C42.4787 422.239 48.1415 412.929 55.2426 404.766C61.8154 397.268 69.3756 390.696 77.716 385.231C84.7784 380.569 92.4542 376.911 100.523 374.362L101.942 373.944L100.49 373.61C94.8462 372.093 89.4568 369.752 84.4948 366.665C77.9792 362.712 72.1253 357.759 67.1472 351.989C61.4555 345.49 56.7727 338.173 53.2558 330.283C49.4438 321.723 47.53 312.438 47.6458 303.068C47.6458 286.038 51.2354 271.211 58.3314 258.973C65.3345 246.849 75.0495 236.511 86.7153 228.769C99.0496 220.679 112.692 214.788 127.037 211.355C142.558 207.569 158.48 205.68 174.455 205.728C191.184 205.679 207.847 207.841 224.01 212.156C239.016 216.127 253.565 221.656 267.421 228.652V294.353C249.055 285.587 233.393 279.626 220.671 276.621C208.328 273.649 195.683 272.114 182.987 272.046C172.964 271.946 162.981 273.307 153.351 276.087C145.11 278.315 137.616 282.708 131.645 288.809C126.219 294.586 123.481 302.617 123.481 312.702C123.459 317.821 124.565 322.882 126.721 327.525C128.876 332.168 132.029 336.28 135.953 339.566C144.301 346.93 157.141 350.67 174.355 350.67H228.318V415.385H175.557C150.512 415.385 132.747 419.743 122.696 428.358C112.645 436.973 107.519 448.661 107.519 463.02C107.519 477.379 113.547 488.549 125.418 496.095C137.289 503.642 153.568 507.432 173.954 507.432C192.129 507.525 210.117 503.764 226.732 496.396C243.177 489.039 259.128 480.623 274.483 471.201V544.381Z" fill="#66009D"/>
</g>
<path d="M125.857 194.16C86.6758 194.16 54.9133 162.398 54.9133 123.217C54.9133 84.0356 86.6758 52.2731 125.857 52.2731C165.038 52.2731 196.8 84.0356 196.8 123.217C196.8 162.398 165.038 194.16 125.857 194.16Z" fill="#5B2C87"/>
<path d="M189.5 175.57C163.266 175.57 142 154.304 142 128.07C142 101.837 163.266 80.5701 189.5 80.5701C215.733 80.5701 237 101.837 237 128.07C237 154.304 215.733 175.57 189.5 175.57Z" fill="#BCE7D9"/>
<path d="M473.5 305.57C416.339 305.57 370 259.232 370 202.07C370 144.909 416.339 98.5701 473.5 98.5701C530.661 98.5701 577 144.909 577 202.07C577 259.232 530.661 305.57 473.5 305.57Z" fill="#BCE7D9"/>
<path d="M506.5 418.814C542.706 386.889 568.333 344.695 579.974 297.847C591.615 250.998 588.717 201.716 571.665 156.555C554.614 111.394 524.217 72.4955 484.519 45.0346C444.822 17.5737 397.705 2.85192 349.436 2.82764" stroke="#5B2C87" stroke-width="5" stroke-miterlimit="10" stroke-linecap="round"/>
<path d="M477.902 533.418C472.796 511.795 486.194 490.128 507.828 485.025C529.462 479.921 551.14 493.313 556.246 514.936C561.352 536.559 547.953 558.225 526.319 563.329C504.685 568.432 483.008 555.04 477.902 533.418Z" fill="#5B2C87"/>
<path d="M73.1869 587.574C113.195 615.62 160.996 630.644 209.983 630.57C217.52 630.57 225.659 630.196 233.347 629.448" stroke="#5B2C87" stroke-width="5" stroke-miterlimit="10" stroke-linecap="round"/>
<path d="M626.27 174.395C626.27 173.968 626.1 173.558 625.797 173.255C625.495 172.953 625.085 172.783 624.657 172.783C624.229 172.783 623.819 172.953 623.517 173.255C623.215 173.558 623.045 173.968 623.045 174.395C623.045 174.823 623.215 175.233 623.517 175.535C623.819 175.838 624.229 176.008 624.657 176.008C625.085 176.008 625.495 175.838 625.797 175.535C626.1 175.233 626.27 174.823 626.27 174.395Z" fill="#66009D"/>
<path d="M626.27 155.047C626.27 154.619 626.1 154.209 625.797 153.907C625.495 153.605 625.085 153.435 624.657 153.435C624.229 153.435 623.819 153.605 623.517 153.907C623.215 154.209 623.045 154.619 623.045 155.047C623.045 155.475 623.215 155.885 623.517 156.187C623.819 156.49 624.229 156.659 624.657 156.659C625.085 156.659 625.495 156.49 625.797 156.187C626.1 155.885 626.27 155.475 626.27 155.047Z" fill="#66009D"/>
<path d="M626.27 136.774C626.27 136.346 626.1 135.936 625.797 135.634C625.495 135.331 625.085 135.161 624.657 135.161C624.229 135.161 623.819 135.331 623.517 135.634C623.215 135.936 623.045 136.346 623.045 136.774C623.045 137.201 623.215 137.611 623.517 137.914C623.819 138.216 624.229 138.386 624.657 138.386C625.085 138.386 625.495 138.216 625.797 137.914C626.1 137.611 626.27 137.201 626.27 136.774Z" fill="#66009D"/>
<path d="M626.27 117.425C626.27 116.998 626.1 116.588 625.797 116.285C625.495 115.983 625.085 115.813 624.657 115.813C624.229 115.813 623.819 115.983 623.517 116.285C623.215 116.588 623.045 116.998 623.045 117.425C623.045 117.853 623.215 118.263 623.517 118.566C623.819 118.868 624.229 119.038 624.657 119.038C625.085 119.038 625.495 118.868 625.797 118.566C626.1 118.263 626.27 117.853 626.27 117.425Z" fill="#66009D"/>
<path d="M626.27 98.6147C626.27 98.3296 626.1 98.0562 625.797 97.8546C625.495 97.653 625.085 97.5398 624.657 97.5398C624.229 97.5398 623.819 97.653 623.517 97.8546C623.215 98.0562 623.045 98.3296 623.045 98.6147C623.045 98.8998 623.215 99.1732 623.517 99.3748C623.819 99.5764 624.229 99.6896 624.657 99.6896C625.085 99.6896 625.495 99.5764 625.797 99.3748C626.1 99.1732 626.27 98.8998 626.27 98.6147Z" fill="#66009D"/>
<path d="M626.27 79.804C626.27 79.3764 626.1 78.9663 625.797 78.6639C625.495 78.3615 625.085 78.1917 624.657 78.1917C624.229 78.1917 623.819 78.3615 623.517 78.6639C623.215 78.9663 623.045 79.3764 623.045 79.804C623.045 80.2316 623.215 80.6417 623.517 80.9441C623.819 81.2465 624.229 81.4164 624.657 81.4164C625.085 81.4164 625.495 81.2465 625.797 80.9441C626.1 80.6417 626.27 80.2316 626.27 79.804Z" fill="#66009D"/>
<path d="M626.27 60.9932C626.27 60.7082 626.1 60.4348 625.797 60.2332C625.495 60.0316 625.085 59.9183 624.657 59.9183C624.229 59.9183 623.819 60.0316 623.517 60.2332C623.215 60.4348 623.045 60.7082 623.045 60.9932C623.045 61.2783 623.215 61.5517 623.517 61.7533C623.819 61.9549 624.229 62.0681 624.657 62.0681C625.085 62.0681 625.495 61.9549 625.797 61.7533C626.1 61.5517 626.27 61.2783 626.27 60.9932Z" fill="#66009D"/>
<path d="M626.27 42.1824C626.27 41.7548 626.1 41.3447 625.797 41.0423C625.495 40.7399 625.085 40.5701 624.657 40.5701C624.229 40.5701 623.819 40.7399 623.517 41.0423C623.215 41.3447 623.045 41.7548 623.045 42.1824C623.045 42.61 623.215 43.0201 623.517 43.3225C623.819 43.6249 624.229 43.7948 624.657 43.7948C625.085 43.7948 625.495 43.6249 625.797 43.3225C626.1 43.0201 626.27 42.61 626.27 42.1824Z" fill="#66009D"/>
<path d="M624.657 194.28H624.983C625.085 194.261 625.183 194.227 625.275 194.177L625.549 194.039L625.789 193.832C625.941 193.684 626.062 193.507 626.144 193.312C626.227 193.116 626.269 192.906 626.27 192.694C626.259 192.262 626.088 191.849 625.789 191.538L625.549 191.331L625.275 191.193C625.183 191.144 625.085 191.109 624.983 191.09C624.642 191.019 624.288 191.061 623.973 191.209C623.658 191.358 623.399 191.605 623.235 191.913C623.071 192.222 623.011 192.575 623.063 192.921C623.115 193.267 623.277 193.586 623.525 193.832C623.674 193.979 623.851 194.095 624.046 194.172C624.24 194.249 624.448 194.286 624.657 194.28Z" fill="#66009D"/>
<path d="M606.921 174.395C606.921 173.968 606.751 173.558 606.449 173.255C606.146 172.953 605.736 172.783 605.309 172.783C604.881 172.783 604.471 172.953 604.169 173.255C603.866 173.558 603.696 173.968 603.696 174.395C603.696 174.823 603.866 175.233 604.169 175.535C604.471 175.838 604.881 176.008 605.309 176.008C605.736 176.008 606.146 175.838 606.449 175.535C606.751 175.233 606.921 174.823 606.921 174.395Z" fill="#66009D"/>
<path d="M606.921 155.047C606.921 154.619 606.751 154.209 606.449 153.907C606.146 153.605 605.736 153.435 605.309 153.435C604.881 153.435 604.471 153.605 604.169 153.907C603.866 154.209 603.696 154.619 603.696 155.047C603.696 155.475 603.866 155.885 604.169 156.187C604.471 156.49 604.881 156.659 605.309 156.659C605.736 156.659 606.146 156.49 606.449 156.187C606.751 155.885 606.921 155.475 606.921 155.047Z" fill="#66009D"/>
<path d="M606.921 136.774C606.921 136.346 606.751 135.936 606.449 135.634C606.146 135.331 605.736 135.161 605.309 135.161C604.881 135.161 604.471 135.331 604.169 135.634C603.866 135.936 603.696 136.346 603.696 136.774C603.696 137.201 603.866 137.611 604.169 137.914C604.471 138.216 604.881 138.386 605.309 138.386C605.736 138.386 606.146 138.216 606.449 137.914C606.751 137.611 606.921 137.201 606.921 136.774Z" fill="#66009D"/>
<path d="M606.921 117.425C606.921 116.998 606.751 116.588 606.449 116.285C606.146 115.983 605.736 115.813 605.309 115.813C604.881 115.813 604.471 115.983 604.169 116.285C603.866 116.588 603.696 116.998 603.696 117.425C603.696 117.853 603.866 118.263 604.169 118.566C604.471 118.868 604.881 119.038 605.309 119.038C605.736 119.038 606.146 118.868 606.449 118.566C606.751 118.263 606.921 117.853 606.921 117.425Z" fill="#66009D"/>
<path d="M606.921 98.6147C606.921 98.3296 606.751 98.0562 606.449 97.8546C606.146 97.653 605.736 97.5398 605.309 97.5398C604.881 97.5398 604.471 97.653 604.169 97.8546C603.866 98.0562 603.696 98.3296 603.696 98.6147C603.696 98.8998 603.866 99.1732 604.169 99.3748C604.471 99.5764 604.881 99.6896 605.309 99.6896C605.736 99.6896 606.146 99.5764 606.449 99.3748C606.751 99.1732 606.921 98.8998 606.921 98.6147Z" fill="#66009D"/>
<path d="M606.921 79.804C606.921 79.3764 606.751 78.9663 606.449 78.6639C606.146 78.3615 605.736 78.1917 605.309 78.1917C604.881 78.1917 604.471 78.3615 604.169 78.6639C603.866 78.9663 603.696 79.3764 603.696 79.804C603.696 80.2316 603.866 80.6417 604.169 80.9441C604.471 81.2465 604.881 81.4164 605.309 81.4164C605.736 81.4164 606.146 81.2465 606.449 80.9441C606.751 80.6417 606.921 80.2316 606.921 79.804Z" fill="#66009D"/>
<path d="M606.921 60.9932C606.921 60.7082 606.751 60.4348 606.449 60.2332C606.146 60.0316 605.736 59.9183 605.309 59.9183C604.881 59.9183 604.471 60.0316 604.169 60.2332C603.866 60.4348 603.696 60.7082 603.696 60.9932C603.696 61.2783 603.866 61.5517 604.169 61.7533C604.471 61.9549 604.881 62.0681 605.309 62.0681C605.736 62.0681 606.146 61.9549 606.449 61.7533C606.751 61.5517 606.921 61.2783 606.921 60.9932Z" fill="#66009D"/>
<path d="M606.921 42.1824C606.921 41.7548 606.751 41.3447 606.449 41.0423C606.146 40.7399 605.736 40.5701 605.309 40.5701C604.881 40.5701 604.471 40.7399 604.169 41.0423C603.866 41.3447 603.696 41.7548 603.696 42.1824C603.696 42.61 603.866 43.0201 604.169 43.3225C604.471 43.6249 604.881 43.7948 605.309 43.7948C605.736 43.7948 606.146 43.6249 606.449 43.3225C606.751 43.0201 606.921 42.61 606.921 42.1824Z" fill="#66009D"/>
<path d="M605.364 194.281H605.683L606.003 194.177L606.287 194.039C606.383 193.979 606.472 193.91 606.553 193.831C606.627 193.758 606.693 193.677 606.748 193.589C606.814 193.505 606.868 193.412 606.908 193.313C606.916 193.209 606.916 193.105 606.908 193.001C606.925 192.898 606.925 192.793 606.908 192.69C606.925 192.581 606.925 192.471 606.908 192.362C606.918 192.264 606.918 192.165 606.908 192.068C606.869 191.963 606.815 191.864 606.748 191.774C606.693 191.686 606.627 191.605 606.553 191.532L606.287 191.324L606.003 191.186L605.683 191.082C605.472 191.048 605.256 191.048 605.045 191.082L604.725 191.186L604.441 191.324L604.193 191.532C604.036 191.681 603.911 191.86 603.826 192.058C603.74 192.255 603.696 192.467 603.696 192.682C603.696 192.896 603.74 193.108 603.826 193.305C603.911 193.503 604.036 193.682 604.193 193.831C604.267 193.91 604.351 193.979 604.441 194.039L604.725 194.177L605.045 194.281H605.364Z" fill="#66009D"/>
<path d="M587.573 174.395C587.573 173.968 587.46 173.558 587.258 173.255C587.057 172.953 586.783 172.783 586.498 172.783C586.357 172.781 586.216 172.821 586.085 172.901C585.954 172.981 585.835 173.1 585.735 173.25C585.635 173.4 585.556 173.579 585.502 173.776C585.449 173.972 585.422 174.183 585.424 174.395C585.422 174.608 585.449 174.818 585.502 175.015C585.556 175.212 585.635 175.39 585.735 175.54C585.835 175.691 585.954 175.809 586.085 175.89C586.216 175.97 586.357 176.01 586.498 176.008C586.783 176.008 587.057 175.838 587.258 175.535C587.46 175.233 587.573 174.823 587.573 174.395Z" fill="#66009D"/>
<path d="M587.573 155.047C587.573 154.619 587.46 154.209 587.258 153.907C587.057 153.605 586.783 153.435 586.498 153.435C586.357 153.432 586.216 153.473 586.085 153.553C585.954 153.633 585.835 153.752 585.735 153.902C585.635 154.052 585.556 154.231 585.502 154.427C585.449 154.624 585.422 154.835 585.424 155.047C585.422 155.259 585.449 155.47 585.502 155.667C585.556 155.863 585.635 156.042 585.735 156.192C585.835 156.342 585.954 156.461 586.085 156.541C586.216 156.621 586.357 156.662 586.498 156.659C586.783 156.659 587.057 156.489 587.258 156.187C587.46 155.885 587.573 155.475 587.573 155.047Z" fill="#66009D"/>
<path d="M587.573 136.774C587.573 136.346 587.46 135.936 587.258 135.634C587.057 135.331 586.783 135.161 586.498 135.161C586.357 135.159 586.216 135.199 586.085 135.28C585.954 135.36 585.835 135.478 585.735 135.629C585.635 135.779 585.556 135.957 585.502 136.154C585.449 136.351 585.422 136.561 585.424 136.774C585.422 136.986 585.449 137.197 585.502 137.393C585.556 137.59 585.635 137.769 585.735 137.919C585.835 138.069 585.954 138.188 586.085 138.268C586.216 138.348 586.357 138.388 586.498 138.386C586.783 138.386 587.057 138.216 587.258 137.914C587.46 137.611 587.573 137.201 587.573 136.774Z" fill="#66009D"/>
<path d="M587.573 117.425C587.573 116.998 587.46 116.588 587.258 116.285C587.057 115.983 586.783 115.813 586.498 115.813C586.357 115.811 586.216 115.851 586.085 115.931C585.954 116.011 585.835 116.13 585.735 116.28C585.635 116.43 585.556 116.609 585.502 116.806C585.449 117.002 585.422 117.213 585.424 117.425C585.422 117.638 585.449 117.849 585.502 118.045C585.556 118.242 585.635 118.42 585.735 118.571C585.835 118.721 585.954 118.839 586.085 118.92C586.216 119 586.357 119.04 586.498 119.038C586.783 119.038 587.057 118.868 587.258 118.566C587.46 118.263 587.573 117.853 587.573 117.425Z" fill="#66009D"/>
<path d="M587.573 98.6147C587.573 98.3296 587.46 98.0562 587.258 97.8547C587.057 97.6531 586.783 97.5399 586.498 97.5399C586.357 97.5383 586.216 97.5651 586.085 97.6185C585.954 97.672 585.835 97.7512 585.735 97.8513C585.635 97.9514 585.556 98.0705 585.502 98.2015C585.449 98.3326 585.422 98.4731 585.424 98.6147C585.422 98.7563 585.449 98.8967 585.502 99.0278C585.556 99.1589 585.635 99.278 585.735 99.3782C585.835 99.4783 585.954 99.5574 586.085 99.6108C586.216 99.6643 586.357 99.6911 586.498 99.6895C586.783 99.6895 587.057 99.5763 587.258 99.3747C587.46 99.1732 587.573 98.8998 587.573 98.6147Z" fill="#66009D"/>
<path d="M587.573 79.804C587.573 79.3764 587.46 78.9663 587.258 78.664C587.057 78.3616 586.783 78.1917 586.498 78.1917C586.357 78.1894 586.216 78.2296 586.085 78.3098C585.954 78.39 585.835 78.5087 585.735 78.6588C585.635 78.809 585.556 78.9877 585.502 79.1843C585.449 79.381 585.422 79.5916 585.424 79.804C585.422 80.0164 585.449 80.227 585.502 80.4237C585.556 80.6203 585.635 80.799 585.735 80.9492C585.835 81.0993 585.954 81.218 586.085 81.2982C586.216 81.3784 586.357 81.4186 586.498 81.4163C586.783 81.4163 587.057 81.2464 587.258 80.944C587.46 80.6417 587.573 80.2316 587.573 79.804Z" fill="#66009D"/>
<path d="M587.573 60.9932C587.573 60.7082 587.46 60.4348 587.258 60.2332C587.057 60.0316 586.783 59.9184 586.498 59.9184C586.357 59.9169 586.216 59.9436 586.085 59.9971C585.954 60.0506 585.835 60.1297 585.735 60.2298C585.635 60.3299 585.556 60.449 585.502 60.5801C585.449 60.7112 585.422 60.8517 585.424 60.9932C585.422 61.1348 585.449 61.2753 585.502 61.4064C585.556 61.5375 585.635 61.6566 585.735 61.7567C585.835 61.8568 585.954 61.9359 586.085 61.9894C586.216 62.0428 586.357 62.0696 586.498 62.0681C586.783 62.0681 587.057 61.9548 587.258 61.7533C587.46 61.5517 587.573 61.2783 587.573 60.9932Z" fill="#66009D"/>
<path d="M587.573 42.1824C587.573 41.7548 587.46 41.3447 587.258 41.0423C587.057 40.74 586.783 40.5702 586.498 40.5702C586.357 40.5679 586.216 40.608 586.085 40.6882C585.954 40.7684 585.835 40.8871 585.735 41.0373C585.635 41.1874 585.556 41.3661 585.502 41.5627C585.449 41.7594 585.422 41.9701 585.424 42.1824C585.422 42.3948 585.449 42.6055 585.502 42.8021C585.556 42.9988 585.635 43.1774 585.735 43.3276C585.835 43.4777 585.954 43.5964 586.085 43.6766C586.216 43.7568 586.357 43.797 586.498 43.7947C586.783 43.7947 587.057 43.6248 587.258 43.3224C587.46 43.0201 587.573 42.61 587.573 42.1824Z" fill="#66009D"/>
<path d="M586.459 194.281C586.758 194.271 587.043 194.1 587.258 193.802C587.312 193.73 587.36 193.65 587.402 193.562L587.497 193.289C587.532 193.192 587.556 193.088 587.569 192.981C587.575 192.878 587.575 192.775 587.569 192.673C587.575 192.565 587.575 192.456 587.569 192.348C587.558 192.245 587.533 192.147 587.497 192.057C587.47 191.957 587.438 191.86 587.402 191.766C587.36 191.679 587.312 191.598 587.258 191.527L587.091 191.321L586.9 191.185L586.685 191.082C586.539 191.048 586.39 191.048 586.244 191.082C586.172 191.098 586.104 191.133 586.041 191.185L585.838 191.321L585.671 191.527C585.621 191.599 585.577 191.679 585.54 191.766C585.495 191.856 585.459 191.953 585.432 192.057C585.425 192.154 585.425 192.251 585.432 192.348C585.421 192.456 585.421 192.565 585.432 192.673C585.42 192.775 585.42 192.879 585.432 192.981C585.427 193.083 585.427 193.186 585.432 193.289C585.459 193.387 585.495 193.479 585.54 193.562C585.577 193.649 585.621 193.73 585.671 193.802L585.838 194.007L586.041 194.144C586.104 194.196 586.172 194.231 586.244 194.247L586.459 194.281Z" fill="#66009D"/>
<path d="M568.225 174.395C568.225 173.968 568.055 173.558 567.752 173.255C567.45 172.953 567.04 172.783 566.612 172.783C566.185 172.783 565.774 172.953 565.472 173.255C565.17 173.558 565 173.968 565 174.395C565 174.823 565.17 175.233 565.472 175.535C565.774 175.838 566.185 176.008 566.612 176.008C567.04 176.008 567.45 175.838 567.752 175.535C568.055 175.233 568.225 174.823 568.225 174.395Z" fill="#66009D"/>
<path d="M568.225 155.047C568.225 154.619 568.055 154.209 567.752 153.907C567.45 153.605 567.04 153.435 566.612 153.435C566.185 153.435 565.774 153.605 565.472 153.907C565.17 154.209 565 154.619 565 155.047C565 155.475 565.17 155.885 565.472 156.187C565.774 156.49 566.185 156.659 566.612 156.659C567.04 156.659 567.45 156.49 567.752 156.187C568.055 155.885 568.225 155.475 568.225 155.047Z" fill="#66009D"/>
<path d="M568.225 136.774C568.225 136.346 568.055 135.936 567.752 135.634C567.45 135.331 567.04 135.161 566.612 135.161C566.185 135.161 565.774 135.331 565.472 135.634C565.17 135.936 565 136.346 565 136.774C565 137.201 565.17 137.611 565.472 137.914C565.774 138.216 566.185 138.386 566.612 138.386C567.04 138.386 567.45 138.216 567.752 137.914C568.055 137.611 568.225 137.201 568.225 136.774Z" fill="#66009D"/>
<path d="M568.225 117.425C568.225 116.998 568.055 116.588 567.752 116.285C567.45 115.983 567.04 115.813 566.612 115.813C566.185 115.813 565.774 115.983 565.472 116.285C565.17 116.588 565 116.998 565 117.425C565 117.853 565.17 118.263 565.472 118.566C565.774 118.868 566.185 119.038 566.612 119.038C567.04 119.038 567.45 118.868 567.752 118.566C568.055 118.263 568.225 117.853 568.225 117.425Z" fill="#66009D"/>
<path d="M568.225 98.6147C568.225 98.3296 568.055 98.0562 567.752 97.8546C567.45 97.653 567.04 97.5398 566.612 97.5398C566.185 97.5398 565.774 97.653 565.472 97.8546C565.17 98.0562 565 98.3296 565 98.6147C565 98.8998 565.17 99.1732 565.472 99.3748C565.774 99.5764 566.185 99.6896 566.612 99.6896C567.04 99.6896 567.45 99.5764 567.752 99.3748C568.055 99.1732 568.225 98.8998 568.225 98.6147Z" fill="#66009D"/>
<path d="M568.225 79.804C568.225 79.3764 568.055 78.9663 567.752 78.6639C567.45 78.3615 567.04 78.1917 566.612 78.1917C566.185 78.1917 565.774 78.3615 565.472 78.6639C565.17 78.9663 565 79.3764 565 79.804C565 80.2316 565.17 80.6417 565.472 80.9441C565.774 81.2465 566.185 81.4164 566.612 81.4164C567.04 81.4164 567.45 81.2465 567.752 80.9441C568.055 80.6417 568.225 80.2316 568.225 79.804Z" fill="#66009D"/>
<path d="M568.225 60.9932C568.225 60.7082 568.055 60.4348 567.752 60.2332C567.45 60.0316 567.04 59.9183 566.612 59.9183C566.185 59.9183 565.774 60.0316 565.472 60.2332C565.17 60.4348 565 60.7082 565 60.9932C565 61.2783 565.17 61.5517 565.472 61.7533C565.774 61.9549 566.185 62.0681 566.612 62.0681C567.04 62.0681 567.45 61.9549 567.752 61.7533C568.055 61.5517 568.225 61.2783 568.225 60.9932Z" fill="#66009D"/>
<path d="M568.225 42.1824C568.225 41.7548 568.055 41.3447 567.752 41.0423C567.45 40.7399 567.04 40.5701 566.612 40.5701C566.185 40.5701 565.774 40.7399 565.472 41.0423C565.17 41.3447 565 41.7548 565 42.1824C565 42.61 565.17 43.0201 565.472 43.3225C565.774 43.6249 566.185 43.7948 566.612 43.7948C567.04 43.7948 567.45 43.6249 567.752 43.3225C568.055 43.0201 568.225 42.61 568.225 42.1824Z" fill="#66009D"/>
<path d="M566.598 194.281C567.03 194.27 567.442 194.097 567.753 193.796C568.043 193.486 568.208 193.079 568.218 192.654C568.227 192.544 568.227 192.435 568.218 192.325C568.2 192.224 568.171 192.126 568.132 192.031C568.087 191.929 568.036 191.831 567.977 191.737C567.924 191.649 567.86 191.567 567.787 191.494C567.472 191.212 567.064 191.056 566.641 191.056C566.219 191.056 565.811 191.212 565.495 191.494C565.195 191.807 565.023 192.22 565.013 192.654C564.996 192.757 564.996 192.862 565.013 192.965C565.005 193.069 565.005 193.173 565.013 193.277C565.051 193.376 565.103 193.469 565.168 193.554C565.222 193.646 565.292 193.728 565.375 193.796C565.703 194.114 566.143 194.288 566.598 194.281Z" fill="#66009D"/>
<g opacity="0.5">
<path d="M0.703655 209.633C3.46754 208.857 6.33269 208.502 9.20228 208.581C15.2405 208.559 21.0585 210.847 25.4646 214.975C31.1414 220.452 31.5253 226.129 30.8408 230.002C30.3878 232.388 29.4624 234.658 28.1192 236.681L28.019 237.282C27.1077 243.054 28.512 248.952 31.9261 253.694L32.9947 255.18C34.7702 257.651 37.4533 259.316 40.4551 259.811C43.4569 260.305 46.5323 259.589 49.0065 257.818C50.878 256.488 52.2992 254.618 53.0803 252.459L39.8067 256.967C39.6853 256.99 39.5609 256.99 39.4395 256.967C39.174 256.972 38.9155 256.882 38.7114 256.712C38.5074 256.542 38.3715 256.304 38.3289 256.042C38.2862 255.78 38.3395 255.512 38.4791 255.286C38.6187 255.06 38.8352 254.892 39.0887 254.813L53.6981 249.804C53.949 247.924 53.7193 246.011 53.0304 244.244L35.2487 252.208C35.1071 252.273 34.9535 252.307 34.7978 252.309C34.5401 252.316 34.2879 252.233 34.0853 252.073C33.8827 251.914 33.7425 251.688 33.6889 251.436C33.6353 251.184 33.6717 250.921 33.792 250.693C33.9123 250.465 34.1086 250.286 34.347 250.188L52.0451 242.274C51.9116 242.074 51.7947 241.873 51.6444 241.673L48.8061 237.716L31.8425 247.283C31.6753 247.381 31.4853 247.433 31.2916 247.433C31.0962 247.435 30.9042 247.383 30.7364 247.282C30.5686 247.182 30.4314 247.038 30.3398 246.866C30.2684 246.74 30.2227 246.601 30.2051 246.457C30.1874 246.313 30.1983 246.167 30.2371 246.028C30.2758 245.888 30.3416 245.758 30.4309 245.644C30.5202 245.529 30.6311 245.434 30.7572 245.363L47.4536 235.913L46.118 234.043C45.9476 233.804 45.8789 233.507 45.9275 233.217C45.976 232.927 46.1376 232.669 46.3767 232.498C46.6158 232.328 46.9129 232.259 47.2025 232.308C47.4922 232.356 47.7507 232.518 47.9212 232.757L53.3976 240.387C53.8291 241.004 54.2141 241.651 54.5496 242.324C55.5632 244.381 56.0412 246.661 55.939 248.953C55.8368 251.244 55.158 253.472 53.9653 255.431C56.5817 254.856 59.3092 255.061 61.8107 256.019C64.3121 256.978 66.4779 258.648 68.0404 260.824L73.2163 268.037C73.3097 268.153 73.3784 268.288 73.4183 268.432C73.4581 268.576 73.4681 268.727 73.4478 268.875C73.4276 269.023 73.3775 269.165 73.3005 269.293C73.2234 269.421 73.121 269.533 72.9996 269.62C72.8783 269.707 72.7406 269.769 72.5947 269.801C72.4487 269.834 72.2976 269.836 72.1507 269.808C72.0039 269.78 71.8642 269.723 71.7403 269.639C71.6163 269.556 71.5106 269.448 71.4297 269.322L66.2872 262.293C64.9668 260.451 63.1301 259.041 61.0091 258.242C58.888 257.442 56.5776 257.289 54.3696 257.802C52.1617 258.315 50.1552 259.47 48.6033 261.122C47.0515 262.774 46.024 264.849 45.6505 267.085L60.577 262.076C60.7151 262.029 60.8611 262.01 61.0066 262.02C61.1521 262.03 61.2944 262.068 61.4248 262.134C61.5553 262.199 61.6714 262.289 61.7666 262.4C61.8619 262.51 61.9344 262.639 61.9796 262.777C62.0267 262.913 62.0463 263.057 62.0373 263.201C62.0283 263.344 61.9909 263.484 61.9272 263.613C61.8636 263.742 61.7749 263.857 61.6664 263.952C61.5578 264.046 61.4316 264.118 61.295 264.163L45.5669 269.489C45.6304 271.361 46.1645 273.187 47.1198 274.799L65.2019 266.701C65.3346 266.642 65.4776 266.609 65.6228 266.605C65.768 266.601 65.9127 266.626 66.0484 266.678C66.184 266.73 66.3081 266.808 66.4136 266.908C66.5191 267.008 66.6037 267.128 66.6629 267.26C66.7221 267.393 66.7545 267.536 66.7584 267.681C66.7624 267.826 66.7378 267.971 66.6859 268.107C66.634 268.242 66.5557 268.366 66.4558 268.472C66.3559 268.577 66.2362 268.662 66.1036 268.721L48.372 276.652L49.4573 278.155C49.6232 278.393 49.6897 278.687 49.643 278.973C49.5963 279.26 49.4398 279.517 49.2068 279.691C49.019 279.832 48.7905 279.908 48.5556 279.908C48.3789 279.908 48.2047 279.866 48.0477 279.784C47.8908 279.703 47.7557 279.585 47.654 279.44L45.9843 277.003C44.4351 274.827 43.5547 272.246 43.4509 269.576C43.3471 266.907 44.0245 264.266 45.4 261.976C44.4357 262.195 43.4502 262.307 42.4614 262.31C40.2842 262.316 38.1371 261.801 36.1996 260.807C34.2622 259.814 32.5909 258.371 31.325 256.6L30.2564 255.114C26.6469 250.115 25.0712 243.932 25.8486 237.816C24.1347 238.174 22.39 238.364 20.6393 238.384C17.4078 238.499 14.2298 237.536 11.6065 235.646C8.91834 233.609 5.64586 229.334 5.36202 220.619C5.12827 213.573 0.954182 211.937 0.787218 211.87C0.56044 211.805 0.360814 211.668 0.218782 211.48C0.0767494 211.292 8.97774e-05 211.062 8.97774e-05 210.826C8.97774e-05 210.591 0.0767494 210.361 0.218782 210.173C0.360814 209.985 0.56044 209.848 0.787218 209.783L0.703655 209.633ZM7.38222 220.385C7.53249 224.743 8.56762 230.587 12.7584 233.742C15.7805 236.013 20.0715 236.581 25.5312 235.412C22.9721 228.22 18.3204 221.957 12.1741 217.43C11.9282 217.269 11.7544 217.019 11.689 216.732C11.6236 216.446 11.6718 216.145 11.8235 215.894C11.9016 215.77 12.0035 215.663 12.1233 215.579C12.2432 215.495 12.3786 215.436 12.5216 215.405C12.6646 215.374 12.8122 215.371 12.9561 215.398C13.1 215.425 13.2373 215.48 13.3597 215.56C19.6703 220.087 24.5029 226.378 27.251 233.642C27.8966 232.332 28.3573 230.938 28.62 229.501C29.4882 224.726 27.8854 220.368 23.895 216.528C19.934 212.767 14.6645 210.695 9.20228 210.751C7.37918 210.706 5.55601 210.84 3.75923 211.152C4.98194 212.35 5.94144 213.79 6.57675 215.38C7.21206 216.97 7.50917 218.674 7.44907 220.385H7.38222Z" fill="#66009E"/>
<path d="M46.953 218.198C46.953 218.198 44.248 219.35 44.3315 224.008C44.3315 227.214 43.8139 231.622 40.8086 234.444C38.7696 236.255 36.1028 237.196 33.3788 237.065C32.928 237.065 32.4603 237.065 31.9928 237.065C31.8481 237.054 31.707 237.015 31.5775 236.949C31.448 236.884 31.3327 236.793 31.2381 236.683C31.1435 236.573 31.0716 236.445 31.0264 236.307C30.9811 236.17 30.9634 236.024 30.9744 235.879C30.9853 235.735 31.0248 235.594 31.0903 235.464C31.1559 235.335 31.246 235.219 31.3561 235.125C31.4662 235.03 31.5939 234.958 31.7317 234.913C31.8696 234.868 32.0153 234.85 32.16 234.861C33.4215 235.06 34.7108 234.989 35.9427 234.652C37.1747 234.315 38.321 233.721 39.3059 232.907C40.6249 231.655 42.1944 229.101 42.111 224.108C41.9679 221.907 42.6195 219.726 43.9475 217.964C40.4591 217.619 36.9512 218.391 33.9297 220.168C33.8082 220.256 33.6699 220.319 33.5233 220.352C33.3767 220.385 33.225 220.388 33.0773 220.36C32.9297 220.332 32.7893 220.274 32.6648 220.19C32.5403 220.106 32.4343 219.997 32.3534 219.871C32.2724 219.744 32.2181 219.602 32.194 219.454C32.1698 219.306 32.1761 219.154 32.2127 219.008C32.2494 218.863 32.3154 218.726 32.4068 218.607C32.4982 218.487 32.6131 218.388 32.7443 218.315C37.0198 215.826 42.0833 215.062 46.9028 216.178C47.1266 216.236 47.3262 216.364 47.4733 216.543C47.6204 216.722 47.7076 216.942 47.7224 217.173C47.7371 217.404 47.6788 217.634 47.5556 217.83C47.4325 218.026 47.2508 218.178 47.0363 218.265L46.953 218.198Z" fill="#66009E"/>
</g>
</svg>
