<svg width="623" height="662" viewBox="0 0 623 662" fill="none" xmlns="http://www.w3.org/2000/svg">
<path d="M100 203C59.1309 203 26 169.869 26 129C26 88.1309 59.1309 55 100 55C140.869 55 174 88.1309 174 129C174 169.869 140.869 203 100 203Z" fill="#5B2C87"/>
<path d="M166.5 184C139.162 184 117 161.614 117 134C117 106.386 139.162 84 166.5 84C193.838 84 216 106.386 216 134C216 161.614 193.838 184 166.5 184Z" fill="#BCE7D9"/>
<path d="M108 559C48.3532 559 0 510.647 0 451C0 391.353 48.3532 343 108 343C167.647 343 216 391.353 216 451C216 510.647 167.647 559 108 559Z" fill="#BCE7D9"/>
<path d="M496.972 438C534.769 404.615 561.524 360.493 573.676 311.503C585.829 262.514 582.804 210.978 565.002 163.753C547.201 116.528 515.467 75.8522 474.024 47.1361C432.58 18.4201 383.391 3.02539 333 3" stroke="#5B2C87" stroke-width="5" stroke-miterlimit="10" stroke-linecap="round"/>
<path d="M622.412 182.381C622.412 181.934 622.235 181.506 621.919 181.19C621.603 180.875 621.175 180.697 620.728 180.697C620.282 180.697 619.854 180.875 619.538 181.19C619.222 181.506 619.045 181.934 619.045 182.381C619.045 182.827 619.222 183.256 619.538 183.571C619.854 183.887 620.282 184.065 620.728 184.065C621.175 184.065 621.603 183.887 621.919 183.571C622.235 183.256 622.412 182.827 622.412 182.381Z" fill="#66009D"/>
<path d="M622.412 162.177C622.412 161.731 622.235 161.302 621.919 160.987C621.603 160.671 621.175 160.493 620.728 160.493C620.282 160.493 619.854 160.671 619.538 160.987C619.222 161.302 619.045 161.731 619.045 162.177C619.045 162.624 619.222 163.052 619.538 163.368C619.854 163.683 620.282 163.861 620.728 163.861C621.175 163.861 621.603 163.683 621.919 163.368C622.235 163.052 622.412 162.624 622.412 162.177Z" fill="#66009D"/>
<path d="M622.412 143.096C622.412 142.649 622.235 142.221 621.919 141.905C621.603 141.589 621.175 141.412 620.728 141.412C620.282 141.412 619.854 141.589 619.538 141.905C619.222 142.221 619.045 142.649 619.045 143.096C619.045 143.542 619.222 143.97 619.538 144.286C619.854 144.602 620.282 144.779 620.728 144.779C621.175 144.779 621.603 144.602 621.919 144.286C622.235 143.97 622.412 143.542 622.412 143.096Z" fill="#66009D"/>
<path d="M622.412 122.892C622.412 122.445 622.235 122.017 621.919 121.701C621.603 121.385 621.175 121.208 620.728 121.208C620.282 121.208 619.854 121.385 619.538 121.701C619.222 122.017 619.045 122.445 619.045 122.892C619.045 123.338 619.222 123.766 619.538 124.082C619.854 124.398 620.282 124.575 620.728 124.575C621.175 124.575 621.603 124.398 621.919 124.082C622.235 123.766 622.412 123.338 622.412 122.892Z" fill="#66009D"/>
<path d="M622.412 103.249C622.412 102.951 622.235 102.666 621.919 102.455C621.603 102.245 621.175 102.126 620.728 102.126C620.282 102.126 619.854 102.245 619.538 102.455C619.222 102.666 619.045 102.951 619.045 103.249C619.045 103.547 619.222 103.832 619.538 104.043C619.854 104.253 620.282 104.371 620.728 104.371C621.175 104.371 621.603 104.253 621.919 104.043C622.235 103.832 622.412 103.547 622.412 103.249Z" fill="#66009D"/>
<path d="M622.412 83.6063C622.412 83.1597 622.235 82.7315 621.919 82.4158C621.603 82.1 621.175 81.9226 620.728 81.9226C620.282 81.9226 619.854 82.1 619.538 82.4158C619.222 82.7315 619.045 83.1597 619.045 83.6063C619.045 84.0528 619.222 84.481 619.538 84.7968C619.854 85.1125 620.282 85.2899 620.728 85.2899C621.175 85.2899 621.603 85.1125 621.919 84.7968C622.235 84.481 622.412 84.0528 622.412 83.6063Z" fill="#66009D"/>
<path d="M622.412 63.9635C622.412 63.6658 622.235 63.3803 621.919 63.1698C621.603 62.9593 621.175 62.8411 620.728 62.8411C620.282 62.8411 619.854 62.9593 619.538 63.1698C619.222 63.3803 619.045 63.6658 619.045 63.9635C619.045 64.2612 619.222 64.5467 619.538 64.7572C619.854 64.9677 620.282 65.0859 620.728 65.0859C621.175 65.0859 621.603 64.9677 621.919 64.7572C622.235 64.5467 622.412 64.2612 622.412 63.9635Z" fill="#66009D"/>
<path d="M622.412 44.3209C622.412 43.8743 622.235 43.446 621.919 43.1303C621.603 42.8146 621.175 42.6372 620.728 42.6372C620.282 42.6372 619.854 42.8146 619.538 43.1303C619.222 43.446 619.045 43.8743 619.045 44.3209C619.045 44.7674 619.222 45.1956 619.538 45.5114C619.854 45.8271 620.282 46.0045 620.728 46.0045C621.175 46.0045 621.603 45.8271 621.919 45.5114C622.235 45.1956 622.412 44.7674 622.412 44.3209Z" fill="#66009D"/>
<path d="M620.728 203.146H621.069C621.175 203.126 621.278 203.089 621.373 203.038L621.66 202.893L621.911 202.677C622.069 202.523 622.195 202.338 622.281 202.134C622.367 201.93 622.412 201.71 622.412 201.489C622.401 201.037 622.222 200.607 621.911 200.282L621.66 200.066L621.373 199.922C621.278 199.87 621.175 199.834 621.069 199.814C620.713 199.74 620.343 199.784 620.014 199.939C619.685 200.094 619.415 200.351 619.244 200.674C619.072 200.996 619.009 201.365 619.064 201.726C619.118 202.087 619.288 202.421 619.546 202.677C619.702 202.831 619.887 202.952 620.09 203.032C620.293 203.112 620.51 203.151 620.728 203.146Z" fill="#66009D"/>
<path d="M602.208 182.381C602.208 181.934 602.031 181.506 601.715 181.19C601.399 180.875 600.971 180.697 600.524 180.697C600.078 180.697 599.65 180.875 599.334 181.19C599.018 181.506 598.841 181.934 598.841 182.381C598.841 182.827 599.018 183.256 599.334 183.571C599.65 183.887 600.078 184.065 600.524 184.065C600.971 184.065 601.399 183.887 601.715 183.571C602.031 183.256 602.208 182.827 602.208 182.381Z" fill="#66009D"/>
<path d="M602.208 162.177C602.208 161.731 602.031 161.302 601.715 160.987C601.399 160.671 600.971 160.493 600.524 160.493C600.078 160.493 599.65 160.671 599.334 160.987C599.018 161.302 598.841 161.731 598.841 162.177C598.841 162.624 599.018 163.052 599.334 163.368C599.65 163.683 600.078 163.861 600.524 163.861C600.971 163.861 601.399 163.683 601.715 163.368C602.031 163.052 602.208 162.624 602.208 162.177Z" fill="#66009D"/>
<path d="M602.208 143.096C602.208 142.649 602.031 142.221 601.715 141.905C601.399 141.589 600.971 141.412 600.524 141.412C600.078 141.412 599.65 141.589 599.334 141.905C599.018 142.221 598.841 142.649 598.841 143.096C598.841 143.542 599.018 143.97 599.334 144.286C599.65 144.602 600.078 144.779 600.524 144.779C600.971 144.779 601.399 144.602 601.715 144.286C602.031 143.97 602.208 143.542 602.208 143.096Z" fill="#66009D"/>
<path d="M602.208 122.892C602.208 122.445 602.031 122.017 601.715 121.701C601.399 121.385 600.971 121.208 600.524 121.208C600.078 121.208 599.65 121.385 599.334 121.701C599.018 122.017 598.841 122.445 598.841 122.892C598.841 123.338 599.018 123.766 599.334 124.082C599.65 124.398 600.078 124.575 600.524 124.575C600.971 124.575 601.399 124.398 601.715 124.082C602.031 123.766 602.208 123.338 602.208 122.892Z" fill="#66009D"/>
<path d="M602.208 103.249C602.208 102.951 602.031 102.666 601.715 102.455C601.399 102.245 600.971 102.126 600.524 102.126C600.078 102.126 599.65 102.245 599.334 102.455C599.018 102.666 598.841 102.951 598.841 103.249C598.841 103.547 599.018 103.832 599.334 104.043C599.65 104.253 600.078 104.371 600.524 104.371C600.971 104.371 601.399 104.253 601.715 104.043C602.031 103.832 602.208 103.547 602.208 103.249Z" fill="#66009D"/>
<path d="M602.208 83.6063C602.208 83.1597 602.031 82.7315 601.715 82.4158C601.399 82.1 600.971 81.9226 600.524 81.9226C600.078 81.9226 599.65 82.1 599.334 82.4158C599.018 82.7315 598.841 83.1597 598.841 83.6063C598.841 84.0528 599.018 84.481 599.334 84.7968C599.65 85.1125 600.078 85.2899 600.524 85.2899C600.971 85.2899 601.399 85.1125 601.715 84.7968C602.031 84.481 602.208 84.0528 602.208 83.6063Z" fill="#66009D"/>
<path d="M602.208 63.9635C602.208 63.6658 602.031 63.3803 601.715 63.1698C601.399 62.9593 600.971 62.8411 600.524 62.8411C600.078 62.8411 599.65 62.9593 599.334 63.1698C599.018 63.3803 598.841 63.6658 598.841 63.9635C598.841 64.2612 599.018 64.5467 599.334 64.7572C599.65 64.9677 600.078 65.0859 600.524 65.0859C600.971 65.0859 601.399 64.9677 601.715 64.7572C602.031 64.5467 602.208 64.2612 602.208 63.9635Z" fill="#66009D"/>
<path d="M602.208 44.3209C602.208 43.8743 602.031 43.446 601.715 43.1303C601.399 42.8146 600.971 42.6372 600.524 42.6372C600.078 42.6372 599.65 42.8146 599.334 43.1303C599.018 43.446 598.841 43.8743 598.841 44.3209C598.841 44.7674 599.018 45.1956 599.334 45.5114C599.65 45.8271 600.078 46.0045 600.524 46.0045C600.971 46.0045 601.399 45.8271 601.715 45.5114C602.031 45.1956 602.208 44.7674 602.208 44.3209Z" fill="#66009D"/>
<path d="M600.582 203.146H600.916L601.249 203.038L601.546 202.893C601.646 202.831 601.739 202.759 601.824 202.677C601.901 202.6 601.97 202.516 602.027 202.424C602.097 202.336 602.153 202.239 602.194 202.135C602.203 202.027 602.203 201.918 602.194 201.81C602.213 201.702 602.213 201.593 602.194 201.485C602.212 201.371 602.212 201.256 602.194 201.142C602.205 201.04 602.205 200.937 602.194 200.835C602.153 200.726 602.097 200.622 602.027 200.528C601.97 200.436 601.901 200.351 601.824 200.275L601.546 200.059L601.249 199.914L600.916 199.806C600.695 199.77 600.469 199.77 600.249 199.806L599.915 199.914L599.619 200.059L599.359 200.275C599.195 200.432 599.065 200.618 598.976 200.825C598.887 201.031 598.841 201.252 598.841 201.476C598.841 201.7 598.887 201.921 598.976 202.127C599.065 202.334 599.195 202.52 599.359 202.677C599.437 202.758 599.524 202.831 599.619 202.893L599.915 203.038L600.249 203.146H600.582Z" fill="#66009D"/>
<path d="M582.004 182.381C582.004 181.934 581.886 181.506 581.675 181.19C581.465 180.875 581.179 180.697 580.881 180.697C580.734 180.695 580.587 180.737 580.45 180.821C580.313 180.904 580.189 181.028 580.084 181.185C579.98 181.342 579.897 181.528 579.841 181.734C579.785 181.939 579.757 182.159 579.759 182.381C579.757 182.603 579.785 182.823 579.841 183.028C579.897 183.233 579.98 183.42 580.084 183.577C580.189 183.734 580.313 183.857 580.45 183.941C580.587 184.025 580.734 184.067 580.881 184.064C581.179 184.064 581.465 183.887 581.675 183.571C581.886 183.256 582.004 182.827 582.004 182.381Z" fill="#66009D"/>
<path d="M582.004 162.177C582.004 161.731 581.886 161.302 581.675 160.987C581.465 160.671 581.179 160.494 580.881 160.494C580.734 160.491 580.587 160.533 580.45 160.617C580.313 160.701 580.189 160.824 580.084 160.981C579.98 161.138 579.897 161.325 579.841 161.53C579.785 161.735 579.757 161.955 579.759 162.177C579.757 162.399 579.785 162.619 579.841 162.824C579.897 163.03 579.98 163.216 580.084 163.373C580.189 163.53 580.313 163.654 580.45 163.737C580.587 163.821 580.734 163.863 580.881 163.861C581.179 163.861 581.465 163.683 581.675 163.368C581.886 163.052 582.004 162.624 582.004 162.177Z" fill="#66009D"/>
<path d="M582.004 143.096C582.004 142.649 581.886 142.221 581.675 141.905C581.465 141.589 581.179 141.412 580.881 141.412C580.734 141.41 580.587 141.451 580.45 141.535C580.313 141.619 580.189 141.743 580.084 141.9C579.98 142.057 579.897 142.243 579.841 142.448C579.785 142.654 579.757 142.874 579.759 143.096C579.757 143.317 579.785 143.537 579.841 143.743C579.897 143.948 579.98 144.135 580.084 144.291C580.189 144.448 580.313 144.572 580.45 144.656C580.587 144.74 580.734 144.781 580.881 144.779C581.179 144.779 581.465 144.602 581.675 144.286C581.886 143.97 582.004 143.542 582.004 143.096Z" fill="#66009D"/>
<path d="M582.004 122.892C582.004 122.445 581.886 122.017 581.675 121.701C581.465 121.385 581.179 121.208 580.881 121.208C580.734 121.206 580.587 121.248 580.45 121.331C580.313 121.415 580.189 121.539 580.084 121.696C579.98 121.853 579.897 122.039 579.841 122.245C579.785 122.45 579.757 122.67 579.759 122.892C579.757 123.113 579.785 123.333 579.841 123.539C579.897 123.744 579.98 123.931 580.084 124.088C580.189 124.244 580.313 124.368 580.45 124.452C580.587 124.536 580.734 124.578 580.881 124.575C581.179 124.575 581.465 124.398 581.675 124.082C581.886 123.766 582.004 123.338 582.004 122.892Z" fill="#66009D"/>
<path d="M582.004 103.249C582.004 102.951 581.886 102.666 581.675 102.455C581.465 102.245 581.179 102.127 580.881 102.127C580.734 102.125 580.587 102.153 580.45 102.209C580.313 102.265 580.189 102.347 580.084 102.452C579.98 102.556 579.897 102.681 579.841 102.817C579.785 102.954 579.757 103.101 579.759 103.249C579.757 103.397 579.785 103.543 579.841 103.68C579.897 103.817 579.98 103.942 580.084 104.046C580.189 104.151 580.313 104.233 580.45 104.289C580.587 104.345 580.734 104.373 580.881 104.371C581.179 104.371 581.465 104.253 581.675 104.043C581.886 103.832 582.004 103.547 582.004 103.249Z" fill="#66009D"/>
<path d="M582.004 83.6063C582.004 83.1598 581.886 82.7316 581.675 82.4158C581.465 82.1001 581.179 81.9227 580.881 81.9227C580.734 81.9203 580.587 81.9622 580.45 82.046C580.313 82.1297 580.189 82.2537 580.084 82.4105C579.98 82.5673 579.897 82.7538 579.841 82.9592C579.785 83.1645 579.757 83.3845 579.759 83.6063C579.757 83.828 579.785 84.048 579.841 84.2534C579.897 84.4587 579.98 84.6453 580.084 84.8021C580.189 84.9589 580.313 85.0828 580.45 85.1665C580.587 85.2503 580.734 85.2922 580.881 85.2898C581.179 85.2898 581.465 85.1124 581.675 84.7967C581.886 84.481 582.004 84.0528 582.004 83.6063Z" fill="#66009D"/>
<path d="M582.004 63.9635C582.004 63.6658 581.886 63.3804 581.675 63.1699C581.465 62.9594 581.179 62.8411 580.881 62.8411C580.734 62.8395 580.587 62.8675 580.45 62.9233C580.313 62.9791 580.189 63.0618 580.084 63.1663C579.98 63.2708 579.897 63.3952 579.841 63.5321C579.785 63.669 579.757 63.8157 579.759 63.9635C579.757 64.1113 579.785 64.258 579.841 64.3949C579.897 64.5318 579.98 64.6562 580.084 64.7607C580.189 64.8652 580.313 64.9478 580.45 65.0037C580.587 65.0595 580.734 65.0875 580.881 65.0859C581.179 65.0859 581.465 64.9676 581.675 64.7571C581.886 64.5466 582.004 64.2612 582.004 63.9635Z" fill="#66009D"/>
<path d="M582.004 44.3209C582.004 43.8744 581.886 43.4461 581.675 43.1304C581.465 42.8146 581.179 42.6373 580.881 42.6373C580.734 42.6349 580.587 42.6768 580.45 42.7606C580.313 42.8443 580.189 42.9683 580.084 43.1251C579.98 43.2819 579.897 43.4684 579.841 43.6738C579.785 43.8791 579.757 44.0991 579.759 44.3209C579.757 44.5426 579.785 44.7626 579.841 44.968C579.897 45.1733 579.98 45.3599 580.084 45.5167C580.189 45.6735 580.313 45.7974 580.45 45.8811C580.587 45.9649 580.734 46.0068 580.881 46.0044C581.179 46.0044 581.465 45.827 581.675 45.5113C581.886 45.1956 582.004 44.7674 582.004 44.3209Z" fill="#66009D"/>
<path d="M580.84 203.146C581.152 203.135 581.45 202.957 581.675 202.646C581.732 202.571 581.782 202.487 581.825 202.396L581.924 202.11C581.96 202.009 581.986 201.9 581.999 201.788C582.005 201.681 582.005 201.574 581.999 201.467C582.005 201.354 582.005 201.24 581.999 201.127C581.988 201.02 581.962 200.918 581.924 200.824C581.896 200.719 581.863 200.618 581.825 200.52C581.782 200.429 581.732 200.345 581.675 200.27L581.501 200.056L581.301 199.913L581.077 199.806C580.924 199.77 580.768 199.77 580.616 199.806C580.541 199.822 580.469 199.859 580.404 199.913L580.192 200.056L580.017 200.27C579.965 200.345 579.919 200.429 579.88 200.52C579.833 200.613 579.796 200.716 579.768 200.824C579.761 200.925 579.761 201.027 579.768 201.127C579.756 201.24 579.756 201.354 579.768 201.467C579.756 201.573 579.756 201.682 579.768 201.788C579.763 201.895 579.763 202.003 579.768 202.11C579.796 202.212 579.834 202.309 579.88 202.396C579.919 202.487 579.965 202.571 580.017 202.646L580.192 202.86L580.404 203.003C580.469 203.057 580.541 203.094 580.616 203.11L580.84 203.146Z" fill="#66009D"/>
<path d="M561.801 182.381C561.801 181.934 561.623 181.506 561.308 181.19C560.992 180.875 560.564 180.697 560.117 180.697C559.67 180.697 559.242 180.875 558.927 181.19C558.611 181.506 558.433 181.934 558.433 182.381C558.433 182.827 558.611 183.256 558.927 183.571C559.242 183.887 559.67 184.065 560.117 184.065C560.564 184.065 560.992 183.887 561.308 183.571C561.623 183.256 561.801 182.827 561.801 182.381Z" fill="#66009D"/>
<path d="M561.801 162.177C561.801 161.731 561.623 161.302 561.308 160.987C560.992 160.671 560.564 160.493 560.117 160.493C559.67 160.493 559.242 160.671 558.927 160.987C558.611 161.302 558.433 161.731 558.433 162.177C558.433 162.624 558.611 163.052 558.927 163.368C559.242 163.683 559.67 163.861 560.117 163.861C560.564 163.861 560.992 163.683 561.308 163.368C561.623 163.052 561.801 162.624 561.801 162.177Z" fill="#66009D"/>
<path d="M561.801 143.096C561.801 142.649 561.623 142.221 561.308 141.905C560.992 141.589 560.564 141.412 560.117 141.412C559.67 141.412 559.242 141.589 558.927 141.905C558.611 142.221 558.433 142.649 558.433 143.096C558.433 143.542 558.611 143.97 558.927 144.286C559.242 144.602 559.67 144.779 560.117 144.779C560.564 144.779 560.992 144.602 561.308 144.286C561.623 143.97 561.801 143.542 561.801 143.096Z" fill="#66009D"/>
<path d="M561.801 122.892C561.801 122.445 561.623 122.017 561.308 121.701C560.992 121.385 560.564 121.208 560.117 121.208C559.67 121.208 559.242 121.385 558.927 121.701C558.611 122.017 558.433 122.445 558.433 122.892C558.433 123.338 558.611 123.766 558.927 124.082C559.242 124.398 559.67 124.575 560.117 124.575C560.564 124.575 560.992 124.398 561.308 124.082C561.623 123.766 561.801 123.338 561.801 122.892Z" fill="#66009D"/>
<path d="M561.801 103.249C561.801 102.951 561.623 102.666 561.308 102.455C560.992 102.245 560.564 102.126 560.117 102.126C559.67 102.126 559.242 102.245 558.927 102.455C558.611 102.666 558.433 102.951 558.433 103.249C558.433 103.547 558.611 103.832 558.927 104.043C559.242 104.253 559.67 104.371 560.117 104.371C560.564 104.371 560.992 104.253 561.308 104.043C561.623 103.832 561.801 103.547 561.801 103.249Z" fill="#66009D"/>
<path d="M561.801 83.6063C561.801 83.1597 561.623 82.7315 561.308 82.4158C560.992 82.1 560.564 81.9226 560.117 81.9226C559.67 81.9226 559.242 82.1 558.927 82.4158C558.611 82.7315 558.433 83.1597 558.433 83.6063C558.433 84.0528 558.611 84.481 558.927 84.7968C559.242 85.1125 559.67 85.2899 560.117 85.2899C560.564 85.2899 560.992 85.1125 561.308 84.7968C561.623 84.481 561.801 84.0528 561.801 83.6063Z" fill="#66009D"/>
<path d="M561.801 63.9635C561.801 63.6658 561.623 63.3803 561.308 63.1698C560.992 62.9593 560.564 62.8411 560.117 62.8411C559.67 62.8411 559.242 62.9593 558.927 63.1698C558.611 63.3803 558.433 63.6658 558.433 63.9635C558.433 64.2612 558.611 64.5467 558.927 64.7572C559.242 64.9677 559.67 65.0859 560.117 65.0859C560.564 65.0859 560.992 64.9677 561.308 64.7572C561.623 64.5467 561.801 64.2612 561.801 63.9635Z" fill="#66009D"/>
<path d="M561.801 44.3209C561.801 43.8743 561.623 43.446 561.308 43.1303C560.992 42.8146 560.564 42.6372 560.117 42.6372C559.67 42.6372 559.242 42.8146 558.927 43.1303C558.611 43.446 558.433 43.8743 558.433 44.3209C558.433 44.7674 558.611 45.1956 558.927 45.5114C559.242 45.8271 559.67 46.0045 560.117 46.0045C560.564 46.0045 560.992 45.8271 561.308 45.5114C561.623 45.1956 561.801 44.7674 561.801 44.3209Z" fill="#66009D"/>
<path d="M560.103 203.146C560.553 203.135 560.984 202.954 561.308 202.64C561.611 202.316 561.784 201.891 561.794 201.447C561.803 201.333 561.803 201.218 561.794 201.104C561.775 200.998 561.745 200.896 561.704 200.797C561.657 200.691 561.603 200.588 561.542 200.489C561.487 200.397 561.42 200.313 561.344 200.236C561.015 199.942 560.589 199.779 560.148 199.779C559.706 199.779 559.28 199.942 558.951 200.236C558.638 200.562 558.458 200.994 558.447 201.447C558.429 201.555 558.429 201.665 558.447 201.772C558.439 201.881 558.439 201.989 558.447 202.098C558.487 202.201 558.542 202.299 558.609 202.387C558.666 202.483 558.739 202.569 558.825 202.64C559.167 202.972 559.627 203.153 560.103 203.146Z" fill="#66009D"/>
<path d="M467.482 557.282C462.15 534.703 476.141 512.078 498.732 506.749C521.323 501.42 543.959 515.404 549.291 537.983C554.623 560.562 540.632 583.187 518.041 588.516C495.45 593.845 472.814 579.861 467.482 557.282Z" fill="#5B2C87"/>
<path d="M45 614C86.7165 643.353 136.559 659.077 187.638 659C195.497 659 203.984 658.608 212 657.826" stroke="#5B2C87" stroke-width="5" stroke-miterlimit="10" stroke-linecap="round"/>
</svg>
